<?xml version="1.0" encoding="UTF-8"?>
<svg version="1.1" xmlns="http://www.w3.org/2000/svg" width="1024" height="1024">
<path d="M0 0 C2.2312337 -0.00218297 4.46196869 -0.02039237 6.69311523 -0.03930664 C31.26437244 -0.1386924 31.26437244 -0.1386924 39.52319336 6.21655273 C47.16237127 14.09006125 56.43334961 35.36339737 56.43334961 46.18530273 C57.09334961 46.51530273 57.75334961 46.84530273 58.43334961 47.18530273 C59.06738281 48.89697266 59.06738281 48.89697266 59.67163086 51.22827148 C61.82647285 58.83161189 64.77000105 66.1358943 67.62084961 73.49780273 C68.20788837 75.02150508 68.79455535 76.54535072 69.38085938 78.06933594 C70.53693861 81.07369947 71.69457807 84.07745436 72.85327148 87.08081055 C74.55018374 91.4833974 76.22726089 95.89336567 77.89746094 100.30615234 C78.83872627 102.78809929 79.78936348 105.26627408 80.74194336 107.74389648 C81.85419224 110.64075652 82.92626711 113.54773244 83.96850586 116.47045898 C87.39560065 125.88448319 91.48369677 133.81559604 100.62084961 138.68530273 C110.32289433 142.8138324 119.73862843 141.75043279 129.43334961 138.18530273 C134.66538195 135.92366431 139.79698133 133.46732953 144.93334961 130.99780273 C146.41565271 130.29179938 147.89832581 129.5865724 149.38134766 128.88208008 C152.47876566 127.40988236 155.57455114 125.93433025 158.66918945 124.45629883 C165.76784239 121.0687658 172.88354836 117.71743112 180.00024414 114.36801147 C182.21058121 113.3269146 184.41971624 112.28330262 186.62866211 111.23925781 C187.98670076 110.59880429 189.34477195 109.95841976 190.70288086 109.31811523 C191.88470947 108.7601123 193.06653809 108.20210938 194.28417969 107.62719727 C196.24023874 106.73158638 198.21998566 105.88400279 200.22900391 105.11450195 C202.58581664 104.28411632 202.58581664 104.28411632 204.43334961 102.18530273 C205.24932617 101.9184668 206.06530273 101.65163086 206.90600586 101.37670898 C212.73877734 99.40661452 218.15020462 96.48791173 223.64624023 93.73022461 C230.51304749 90.37322838 236.50837108 87.89714472 244.23681641 90.16210938 C253.94911634 94.68631178 262.10970547 104.54754159 269.57910156 112.0703125 C271.38569932 113.88774147 273.20289556 115.69408767 275.02124023 117.49975586 C276.18920055 118.66903621 277.35654115 119.83893596 278.52319336 121.00952148 C279.05863266 121.54091232 279.59407196 122.07230316 280.14573669 122.61979675 C285.252113 127.78995119 289.07342311 132.8911515 290.43334961 140.18530273 C290.20837626 148.31648245 287.40017409 154.37801888 283.87084961 161.62280273 C283.28797846 162.84450067 282.70647134 164.06685018 282.1262207 165.28979492 C280.88550481 167.90047318 279.63779921 170.50764362 278.38500977 173.11254883 C276.41418997 177.21633431 274.47296611 181.3336599 272.53881836 185.45483398 C272.04985329 186.49642166 272.04985329 186.49642166 271.55101013 187.55905151 C270.88724386 188.97324694 270.22356321 190.38748256 269.55996704 191.80175781 C267.88250527 195.37491851 266.20114543 198.94624103 264.51928711 202.51733398 C264.18453873 203.22826202 263.84979034 203.93919006 263.50489807 204.67166138 C261.43258836 209.07065562 259.35360145 213.46643528 257.27035522 217.86026001 C255.89888091 220.75485802 254.53124596 223.65126052 253.16424561 226.54797363 C252.52137979 227.90778823 251.87678791 229.26678845 251.23028564 230.62487793 C240.60544996 252.45322823 240.60544996 252.45322823 242.52709961 275.90014648 C245.23724055 282.73390704 250.05028107 288.04312192 256.65576172 291.27148438 C267.32840755 295.65064388 278.16820879 299.58418277 288.99584961 303.56030273 C290.99658642 304.29704903 292.997238 305.03402682 294.99780273 305.77124023 C302.62009613 308.57903248 310.24374767 311.38309516 317.87060547 314.1784668 C318.72649765 314.49264557 319.58238983 314.80682434 320.46421814 315.13052368 C322.048052 315.71189995 323.63222091 316.29236476 325.21681213 316.87167358 C329.80596463 318.55731252 334.34520025 320.33566699 338.87084961 322.18530273 C345.62353581 324.93041647 352.46963417 327.33852465 359.38232422 329.65014648 C368.61604144 332.79227221 376.10693322 335.53246996 380.68334961 344.68530273 C382.53109123 350.84444147 382.60709804 356.89038215 382.63647461 363.26342773 C382.64217468 364.23004333 382.64787476 365.19665894 382.65374756 366.19256592 C382.66316763 368.23326534 382.6697196 370.27397976 382.67358398 372.31469727 C382.68327407 375.41116353 382.71431996 378.50696114 382.74584961 381.60327148 C382.75238235 383.594153 382.75763175 385.58503921 382.76147461 387.57592773 C382.77382141 388.48981262 382.78616821 389.40369751 382.79888916 390.34527588 C382.77329587 397.85681933 381.63591844 404.65362811 377.61352539 411.10327148 C368.70315799 419.61252268 353.9336849 423.11951851 342.57382202 427.12237549 C337.37324553 428.95553252 332.18338624 430.81865967 326.99194336 432.67749023 C325.94035538 433.05316132 324.8887674 433.4288324 323.80531311 433.81588745 C313.37328068 437.54872737 302.99103419 441.40945044 292.62084961 445.31030273 C291.82302063 445.6096875 291.02519165 445.90907227 290.20318604 446.2175293 C284.94112617 448.19259596 279.68558663 450.18427869 274.43334961 452.18530273 C273.62299255 452.49273407 272.8126355 452.80016541 271.97772217 453.11691284 C269.51446722 454.05291615 267.05370209 454.99519927 264.59350586 455.93920898 C263.84481735 456.22301422 263.09612885 456.50681946 262.32475281 456.79922485 C252.55096668 460.57146998 246.82290724 465.48509996 242.43334961 475.18530273 C238.34177139 486.98865742 241.16416624 497.73505504 245.96069336 508.73999023 C247.43334961 512.18530273 247.43334961 512.18530273 248.49975586 515.56811523 C249.14433536 518.32920328 249.14433536 518.32920328 251.43334961 519.18530273 C252.23999023 520.90795898 252.23999023 520.90795898 253.08959961 523.24780273 C254.84632396 527.81787901 256.81024605 532.26061023 258.90209961 536.68530273 C259.22130875 537.36073624 259.54051788 538.03616974 259.86940002 538.73207092 C260.54131577 540.15028747 261.21419492 541.56804792 261.88796997 542.98538208 C263.67961086 546.75575187 265.45983188 550.53151582 267.24194336 554.30639648 C267.5988475 555.06174179 267.95575165 555.8170871 268.32347107 556.59532166 C281.91221785 585.36075174 281.91221785 585.36075174 287.68334961 598.87280273 C287.97153564 599.52579346 288.25972168 600.17878418 288.55664062 600.8515625 C290.6766788 605.95031163 291.42188108 610.09189547 289.71582031 615.43066406 C286.23033827 623.48798087 280.08659354 629.09934182 273.87084961 635.06030273 C272.81824878 636.08775278 271.76680793 637.11639261 270.71655273 638.14624023 C268.79111099 640.03122552 266.85839073 641.90735505 264.91943359 643.77856445 C263.32542579 645.321698 261.75918615 646.89435861 260.23046875 648.50219727 C258.43334961 650.18530273 258.43334961 650.18530273 256.43334961 650.18530273 C256.18327148 650.78084961 255.93319336 651.37639648 255.67553711 651.98999023 C254.26156369 654.48889924 252.87649647 655.63948745 250.55834961 657.31030273 C249.88030273 657.80788086 249.20225586 658.30545898 248.50366211 658.81811523 C242.55815975 662.74439038 237.48590399 663.06467618 230.43334961 662.18530273 C225.84867514 660.73039026 221.66051606 658.65941916 217.37084961 656.49780273 C216.098349 655.87811298 214.82479124 655.26059026 213.55029297 654.64501953 C210.73327521 653.2787912 207.92421694 651.89766919 205.11987305 650.50561523 C200.00043257 647.96569545 194.86188714 645.46562353 189.72241211 642.96655273 C182.28756196 639.34813198 174.85815636 635.71881653 167.43334961 632.07983398 C156.46847757 626.70776863 145.50076453 621.34388744 134.43334961 616.18530273 C133.80074219 615.88720703 133.16813477 615.58911133 132.51635742 615.28198242 C122.42590916 610.56937972 113.25740612 608.61868739 102.43334961 612.18530273 C89.81454994 617.95582144 85.29457818 629.60182802 80.67944336 641.87670898 C80.00075195 643.70008789 80.00075195 643.70008789 79.30834961 645.56030273 C78.57640033 647.51134155 77.8428331 649.46176726 77.10919189 651.41217041 C76.6107832 652.73746868 76.11286022 654.0629497 75.61541748 655.38861084 C73.25780983 661.66825628 70.85017358 667.92822547 68.43334961 674.18530273 C65.34688076 682.18125327 62.2956932 690.18941816 59.27563477 698.21069336 C57.01319233 704.20927206 54.73006531 710.19976828 52.43334961 716.18530273 C52.01102051 717.28680664 51.58869141 718.38831055 51.15356445 719.52319336 C49.97113942 722.58380672 48.76896104 725.63574552 47.55834961 728.68530273 C47.21344482 729.58087891 46.86854004 730.47645508 46.51318359 731.39916992 C43.50150741 738.87191422 39.34820098 742.97626277 32.43334961 747.18530273 C29.45863513 748.17687423 27.26998793 748.38107366 24.15600586 748.50170898 C23.09454346 748.54384521 22.03308105 748.58598145 20.93945312 748.62939453 C19.80306396 748.66846924 18.6666748 748.70754395 17.49584961 748.74780273 C16.33174561 748.78881104 15.1676416 748.82981934 13.96826172 748.87207031 C-25.44088082 750.17518634 -25.44088082 750.17518634 -34.37817383 743.36425781 C-42.70446378 735.07419335 -46.24948485 720.47630197 -50.12915039 709.62280273 C-51.33887231 706.27766337 -52.55443052 702.9346526 -53.76977539 699.59155273 C-54.07804764 698.741129 -54.38631989 697.89070526 -54.70393372 697.01451111 C-56.93484399 690.87442588 -59.22512373 684.75874579 -61.55102539 678.65405273 C-62.03532265 677.38235985 -62.03532265 677.38235985 -62.52940369 676.0849762 C-63.78543507 672.79068747 -65.04325115 669.49711229 -66.30764771 666.20602417 C-67.17455014 663.94903351 -68.03689629 661.69034485 -68.89868164 659.43139648 C-69.28361786 658.4370459 -69.28361786 658.4370459 -69.67633057 657.42260742 C-70.70636744 654.71518258 -71.57386498 652.14681084 -72.10839844 649.29492188 C-72.25962158 648.59874756 -72.41084473 647.90257324 -72.56665039 647.18530273 C-73.22665039 646.85530273 -73.88665039 646.52530273 -74.56665039 646.18530273 C-74.56665039 644.86530273 -74.56665039 643.54530273 -74.56665039 642.18530273 C-75.22665039 641.85530273 -75.88665039 641.52530273 -76.56665039 641.18530273 C-77.24243164 639.21655273 -77.24243164 639.21655273 -77.87915039 636.68530273 C-79.16592264 632.10281788 -80.96365145 628.27821683 -83.38305664 624.19311523 C-84.56665039 622.18530273 -84.56665039 622.18530273 -85.46899414 620.05249023 C-86.86064893 617.68519133 -88.06097226 617.24104054 -90.56665039 616.18530273 C-91.28981445 615.77151367 -92.01297852 615.35772461 -92.75805664 614.93139648 C-102.08140976 609.78588859 -109.90532873 609.36092963 -120.11108398 612.03540039 C-126.802499 614.26209 -132.95670346 617.61159717 -139.19165039 620.87280273 C-141.22844031 621.92633966 -143.2669729 622.97629819 -145.30770874 624.02217102 C-147.134058 624.95989484 -148.95524579 625.90765138 -150.77612305 626.85595703 C-153.56665039 628.18530273 -153.56665039 628.18530273 -155.56665039 628.18530273 C-155.89665039 628.84530273 -156.22665039 629.50530273 -156.56665039 630.18530273 C-159.13372413 631.42625781 -161.69415422 632.57276191 -164.31665039 633.68530273 C-177.76173221 639.5246198 -190.97239662 645.84900979 -204.06665039 652.43530273 C-205.35436084 653.07602816 -206.64211984 653.71665603 -207.92993164 654.35717773 C-210.30495864 655.54060827 -212.64330207 656.76115757 -214.98461914 658.01342773 C-222.55700396 661.88556717 -229.04910125 663.58916471 -237.56665039 662.18530273 C-241.12915039 660.37280273 -241.12915039 660.37280273 -243.56665039 658.18530273 C-244.35040039 657.64905273 -245.13415039 657.11280273 -245.94165039 656.56030273 C-246.74602539 655.87967773 -246.74602539 655.87967773 -247.56665039 655.18530273 C-247.56665039 654.52530273 -247.56665039 653.86530273 -247.56665039 653.18530273 C-248.15833008 652.93264648 -248.75000977 652.67999023 -249.35961914 652.41967773 C-251.826781 651.03981376 -253.10376868 649.62169167 -254.87915039 647.43530273 C-257.13304279 644.76331089 -259.36125066 642.39825891 -262.06665039 640.18530273 C-265.31501946 637.50123832 -268.0107813 634.54596714 -270.73071289 631.33374023 C-273.35499056 628.262777 -276.11584031 625.31809864 -278.86743164 622.36108398 C-283.18516158 616.8324045 -283.29368873 610.930034 -282.56665039 604.18530273 C-281.59416574 600.67441136 -280.18166435 597.47528947 -278.62915039 594.18530273 C-278.21874512 593.27361328 -277.80833984 592.36192383 -277.38549805 591.42260742 C-276.13595074 588.6652826 -274.85726387 585.9236126 -273.56665039 583.18530273 C-273.0380542 582.05705078 -273.0380542 582.05705078 -272.4987793 580.90600586 C-271.13002507 577.9918411 -269.75217149 575.08232674 -268.35913086 572.1796875 C-264.20349973 563.50588286 -260.25089681 554.74031153 -256.2835083 545.97940063 C-252.89384673 538.49461765 -249.49943065 531.01283475 -246.03930664 523.56030273 C-245.4937915 522.3847583 -244.94827637 521.20921387 -244.38623047 519.99804688 C-243.37168677 517.81635974 -242.35476041 515.63577832 -241.33496094 513.45654297 C-235.32668861 500.53604239 -231.3717015 489.58968318 -235.61743164 475.48217773 C-236.63775243 473.01325334 -237.89209559 471.25735287 -239.56665039 469.18530273 C-239.95723633 468.62069336 -240.34782227 468.05608398 -240.75024414 467.47436523 C-248.07347688 457.75568254 -261.3488105 454.68410564 -272.35180664 450.77514648 C-281.79435872 447.40979831 -291.17561456 443.87871492 -300.56665039 440.37280273 C-316.06633096 434.58885485 -316.06633096 434.58885485 -331.59399414 428.88061523 C-332.27982574 428.63030045 -332.96565735 428.37998566 -333.67227173 428.12208557 C-336.78990024 426.9849939 -339.90874063 425.85151703 -343.02954102 424.72314453 C-369.06423852 415.25162339 -369.06423852 415.25162339 -373.80493164 405.15014648 C-375.18608394 401.58748183 -375.6950362 398.3925907 -375.7277832 394.57543945 C-375.74219452 393.212845 -375.74219452 393.212845 -375.75689697 391.82272339 C-375.76114685 390.84667145 -375.76539673 389.87061951 -375.76977539 388.86499023 C-375.77547546 387.85115265 -375.78117554 386.83731506 -375.78704834 385.79275513 C-375.79649085 383.64594564 -375.80302934 381.49912171 -375.80688477 379.35229492 C-375.81655268 376.09324255 -375.84756804 372.83483116 -375.87915039 369.57592773 C-375.88568477 367.48478562 -375.89093353 365.39363902 -375.89477539 363.30249023 C-375.90712219 362.33858368 -375.91946899 361.37467712 -375.93218994 360.38156128 C-375.90663706 352.48597811 -374.9561604 344.72227353 -369.81665039 338.43530273 C-363.81009009 332.9724397 -355.12189688 330.70371823 -347.56665039 328.18530273 C-347.89665039 327.52530273 -348.22665039 326.86530273 -348.56665039 326.18530273 C-346.59921875 326.02602295 -346.59921875 326.02602295 -344.59204102 325.86352539 C-339.79962495 325.32554151 -335.6474592 324.04904269 -331.16040039 322.33374023 C-330.37375 322.04272934 -329.58709961 321.75171844 -328.77661133 321.45188904 C-326.20299423 320.49747567 -323.63492414 319.52899221 -321.06665039 318.56030273 C-319.26300055 317.88828434 -317.45895696 317.21732189 -315.65454102 316.54736328 C-312.84202973 315.5026009 -310.02995587 314.45675163 -307.21936035 313.40684509 C-300.51389015 310.90205708 -293.79502398 308.43644754 -287.06665039 305.99389648 C-286.13832397 305.65650452 -285.20999756 305.31911255 -284.25354004 304.97149658 C-280.64593317 303.66048358 -277.03826114 302.34966649 -273.42919922 301.04266357 C-270.9426579 300.14140153 -268.45763914 299.23605172 -265.97290039 298.32983398 C-265.25263672 298.06996201 -264.53237305 297.81009003 -263.7902832 297.54234314 C-247.72219352 291.67074183 -247.72219352 291.67074183 -236.79711914 279.05639648 C-232.23838564 268.41935164 -233.12219248 258.3143538 -237.24243164 247.80249023 C-241.03353904 238.50351223 -245.30091636 229.42706203 -249.56033325 220.3359375 C-258.5737294 201.07310041 -267.55142746 181.78888751 -276.29730225 162.40289307 C-277.10635713 160.61079109 -277.91969449 158.8206244 -278.7331543 157.03051758 C-284.96366561 143.14448653 -284.96366561 143.14448653 -284.02758789 138.52514648 C-280.76136481 131.29950909 -277.23717621 125.78297823 -271.56665039 120.18530273 C-269.8196955 118.41662163 -268.0736452 116.64704672 -266.32836914 114.87670898 C-264.82045393 113.3540298 -263.31156672 111.83232123 -261.80224609 110.31103516 C-260.77373528 109.27246793 -259.74702679 108.23211259 -258.72216797 107.18994141 C-241.8492813 90.04076088 -241.8492813 90.04076088 -232.56665039 89.18530273 C-226.10634656 89.39369963 -220.3192322 91.21369614 -214.56665039 94.18530273 C-214.23665039 94.84530273 -213.90665039 95.50530273 -213.56665039 96.18530273 C-211.57962607 96.88970232 -209.57697238 97.5504406 -207.56665039 98.18530273 C-205.71559615 99.01296797 -203.87976466 99.87533777 -202.05883789 100.76733398 C-201.00422363 101.28046143 -199.94960938 101.79358887 -198.86303711 102.32226562 C-197.73397949 102.87519287 -196.60492188 103.42812012 -195.44165039 103.99780273 C-193.00493771 105.18175998 -190.56771747 106.36455581 -188.12915039 107.54467773 C-187.50442841 107.84712906 -186.87970642 108.14958038 -186.23605347 108.4611969 C-178.51793479 112.1883459 -170.73238227 115.76935691 -162.94921875 119.3581543 C-153.91015522 123.53559032 -144.93085566 127.82872953 -135.99780273 132.22851562 C-123.13140428 138.49112517 -110.01733707 144.34368682 -95.75415039 139.43530273 C-86.01442214 135.46827859 -82.11732082 129.12810187 -78.05102539 119.65405273 C-76.54673605 115.89031246 -75.13309196 112.09392916 -73.7253418 108.29321289 C-72.59032764 105.24881126 -71.437498 102.21178623 -70.27947998 99.17608643 C-69.1700469 96.2664783 -68.06557452 93.3550014 -66.9619751 90.44317627 C-66.40768904 88.98204654 -65.85215086 87.52139118 -65.29534912 86.06121826 C-64.50714902 83.99112584 -63.72554685 81.91865642 -62.94555664 79.84545898 C-62.48737549 78.63510986 -62.02919434 77.42476074 -61.55712891 76.17773438 C-60.40953601 73.23597804 -60.40953601 73.23597804 -60.56665039 70.18530273 C-59.90665039 70.18530273 -59.24665039 70.18530273 -58.56665039 70.18530273 C-58.39631287 69.59331085 -58.22597534 69.00131897 -58.05047607 68.39138794 C-55.16535305 58.55036007 -51.59494064 48.97537039 -48.03442383 39.36254883 C-47.22226512 37.16021149 -46.41757417 34.95510593 -45.62036133 32.74731445 C-44.45815139 29.52995385 -43.2728101 26.32196137 -42.08227539 23.11499023 C-41.73408752 22.13770966 -41.38589966 21.16042908 -41.02716064 20.15353394 C-38.2046505 12.67238028 -34.4106818 6.83341326 -27.75415039 2.24780273 C-18.96204131 -0.68290029 -9.17742476 -0.00100179 0 0 Z M-77.56665039 277.18530273 C-78.2124707 277.69577148 -78.85829102 278.20624023 -79.52368164 278.73217773 C-80.910152 279.83615882 -82.24585353 281.00353713 -83.56665039 282.18530273 C-83.56665039 282.84530273 -83.56665039 283.50530273 -83.56665039 284.18530273 C-84.55665039 284.51530273 -85.54665039 284.84530273 -86.56665039 285.18530273 C-108.03343113 304.94385158 -121.36450533 338.1684793 -122.6887207 366.82714844 C-123.76342958 405.34510299 -114.1687122 437.6546578 -87.56665039 466.18530273 C-63.94889401 490.4854341 -30.99820132 501.69525855 2.37084961 502.37280273 C38.44851471 501.90481415 71.0267375 490.2063118 96.43334961 464.18530273 C109.7957681 450.17558552 121.01149307 432.21610814 125.43334961 413.18530273 C125.78913086 411.72350586 125.78913086 411.72350586 126.15209961 410.23217773 C126.40991211 409.14420898 126.66772461 408.05624023 126.93334961 406.93530273 C127.19116211 405.85764648 127.44897461 404.77999023 127.71459961 403.66967773 C129.51395376 394.94672175 129.58510574 386.51029599 129.55834961 377.62280273 C129.5622168 376.33438477 129.56608398 375.0459668 129.57006836 373.71850586 C129.5687793 372.46875977 129.56749023 371.21901367 129.56616211 369.93139648 C129.56447021 368.2403479 129.56447021 368.2403479 129.56274414 366.51513672 C129.68964074 360.42092171 129.68964074 360.42092171 127.43334961 355.18530273 C127.27866211 353.39092773 127.27866211 353.39092773 127.12084961 351.56030273 C124.42073505 326.63315821 111.06864674 302.60321562 93.43334961 285.18530273 C92.71276367 284.41831055 91.99217773 283.65131836 91.24975586 282.86108398 C71.32524517 261.9696993 41.39141257 248.21631736 12.43334961 247.18530273 C10.78206055 247.12536133 10.78206055 247.12536133 9.09741211 247.06420898 C-23.35147274 246.48597938 -52.56466757 256.41576727 -77.56665039 277.18530273 Z " fill="#1EC2D7" transform="translate(508.566650390625,129.814697265625)"/>
<path d="M0 0 C5.85408106 3.19944816 11.79737316 6.14392882 17.82641602 8.99902344 C19.25969238 9.67868164 19.25969238 9.67868164 20.72192383 10.37207031 C22.75465998 11.33574764 24.78754255 12.29911618 26.82055664 13.26220703 C32.13147849 15.78943484 37.42522907 18.35208708 42.71969604 20.9135437 C46.39758023 22.69230707 50.07725659 24.46735999 53.75660706 26.24308777 C56.65336697 27.64127871 59.54962911 29.04048203 62.44506836 30.44140625 C65.54982449 31.94296729 68.65660472 33.44025876 71.76391602 34.93652344 C72.6649707 35.37351562 73.56602539 35.81050781 74.49438477 36.26074219 C88.3515873 43.4739455 88.3515873 43.4739455 103.32641602 42.49902344 C106.22953688 41.40164375 107.98956855 40.11092019 110.07641602 37.81152344 C110.73641602 38.14152344 111.39641602 38.47152344 112.07641602 38.81152344 C105.80010776 44.23197148 101.9185927 46.39793775 93.40893555 46.22705078 C87.38616321 45.47607946 82.38540046 42.83078144 77.01391602 40.12402344 C75.74141541 39.50433368 74.46785765 38.88681097 73.19335938 38.27124023 C70.37634161 36.90501191 67.56728335 35.52388989 64.76293945 34.13183594 C59.64349898 31.59191615 54.50495355 29.09184423 49.36547852 26.59277344 C41.93062837 22.97435269 34.50122277 19.34503724 27.07641602 15.70605469 C16.11154397 10.33398933 5.14383094 4.97010814 -5.92358398 -0.18847656 C-6.55619141 -0.48657227 -7.18879883 -0.78466797 -7.84057617 -1.09179688 C-17.93102443 -5.80439958 -27.09952748 -7.7550919 -37.92358398 -4.18847656 C-50.54437712 1.58295375 -55.06500941 13.23260752 -59.6796875 25.50976562 C-60.13142334 26.7230957 -60.58315918 27.93642578 -61.04858398 29.18652344 C-61.52706248 30.45921267 -62.00615725 31.73167036 -62.48583984 33.00390625 C-64.21330005 37.58717957 -65.93435074 42.17285147 -67.65374756 46.75915527 C-69.25550513 51.03005774 -70.86880028 55.29646907 -72.48608398 59.56152344 C-72.90325684 60.67962402 -73.32042969 61.79772461 -73.75024414 62.94970703 C-74.13873535 63.9714502 -74.52722656 64.99319336 -74.92749023 66.04589844 C-75.43517944 67.39506348 -75.43517944 67.39506348 -75.953125 68.77148438 C-76.92358398 70.81152344 -76.92358398 70.81152344 -78.92358398 71.81152344 C-76.56175806 63.05927925 -73.32374698 54.64387445 -70.1003418 46.18286133 C-69.18543097 43.78013581 -68.27674408 41.37512841 -67.36889648 38.96972656 C-65.57883895 34.24049637 -63.75911684 29.52327293 -61.92358398 24.81152344 C-61.6199292 24.02835754 -61.31627441 23.24519165 -61.00341797 22.43829346 C-60.10799872 20.14263525 -59.19799875 17.85332845 -58.28295898 15.56542969 C-57.88708588 14.54690163 -57.88708588 14.54690163 -57.48321533 13.50779724 C-53.41173272 3.47124094 -46.97781531 -2.66455885 -37.11108398 -7.06347656 C-23.93015086 -11.45712094 -11.4468434 -6.25892774 0 0 Z " fill="#0D8BA7" transform="translate(648.923583984375,746.1884765625)"/>
<path d="M0 0 C7.39640737 0 12.75120021 4.0423854 18 9 C24.83848407 16.83485835 27.71067457 27.14304673 31.1875 36.75 C31.85287893 38.56028829 32.51956101 40.37009809 33.1875 42.17944336 C34.51953139 45.79028071 35.84659245 49.40287592 37.16943359 53.01708984 C39.97811052 60.67875342 42.87352475 68.30700385 45.78686523 75.92944336 C48.14877919 82.1108822 50.4857276 88.29924771 52.77856445 94.50660706 C54.09714667 98.06705218 55.43027457 101.62196187 56.76538086 105.17623901 C57.41372272 106.91213697 58.05597873 108.65032205 58.69165039 110.39089966 C63.10979252 123.64999262 63.10979252 123.64999262 72 134 C78.87905231 136.9989699 85.75228839 137.45601096 93.16015625 137.43359375 C94.70502968 137.44145653 94.70502968 137.44145653 96.28111267 137.44947815 C98.44334009 137.45585991 100.6056024 137.45461169 102.76782227 137.44604492 C106.05743559 137.43751313 109.34532223 137.46638693 112.63476562 137.49804688 C114.74739532 137.49965877 116.86002805 137.49908159 118.97265625 137.49609375 C120.43083519 137.51294472 120.43083519 137.51294472 121.91847229 137.53013611 C127.79307371 137.47075356 132.01531165 136.5253813 137.22361755 133.75990295 C137.80982376 133.50913498 138.39602997 133.258367 139 133 C139.66 133.33 140.32 133.66 141 134 C136.04190218 137.4155785 132.72375006 139.08392454 126.72265625 139.31640625 C125.66119385 139.35854248 124.59973145 139.40067871 123.50610352 139.4440918 C122.36971436 139.4831665 121.2333252 139.52224121 120.0625 139.5625 C118.31634399 139.62401245 118.31634399 139.62401245 116.53491211 139.68676758 C77.12576957 140.98988361 77.12576957 140.98988361 68.18847656 134.17895508 C59.86218661 125.88889062 56.31716554 111.29099924 52.4375 100.4375 C51.22777808 97.09236063 50.01221987 93.74934986 48.796875 90.40625 C48.48860275 89.55582626 48.18033051 88.70540253 47.86271667 87.82920837 C45.6318064 81.68912314 43.34152666 75.57344306 41.015625 69.46875 C40.69276016 68.62095474 40.36989532 67.77315948 40.0372467 66.89967346 C38.78121532 63.60538474 37.52339924 60.31180956 36.25900269 57.02072144 C35.39210025 54.76373077 34.5297541 52.50504211 33.66796875 50.24609375 C33.4113446 49.58319336 33.15472046 48.92029297 32.89031982 48.23730469 C31.86028295 45.52987985 30.99278541 42.96150811 30.45825195 40.10961914 C30.30702881 39.41344482 30.15580566 38.71727051 30 38 C29.34 37.67 28.68 37.34 28 37 C28 35.68 28 34.36 28 33 C27.34 32.67 26.68 32.34 26 32 C25.32421875 30.03125 25.32421875 30.03125 24.6875 27.5 C23.40072775 22.91751515 21.60299894 19.09291409 19.18359375 15.0078125 C18 13 18 13 17.09765625 10.8671875 C15.68831859 8.46980885 14.55368298 8.06550221 12 7 C8 5 4 3 0 1 C0 0.67 0 0.34 0 0 Z " fill="#0F8EA8" transform="translate(406,739)"/>
<path d="M0 0 C1.61648438 0.01353516 1.61648438 0.01353516 3.265625 0.02734375 C4.08546875 0.03894531 4.9053125 0.05054688 5.75 0.0625 C5.75 0.3925 5.75 0.7225 5.75 1.0625 C4.78964844 1.15144531 3.82929688 1.24039063 2.83984375 1.33203125 C-10.8562234 2.98814167 -22.11489967 8.78973517 -34.25 15.0625 C-36.10314403 16.01754521 -37.95851415 16.96828711 -39.81640625 17.9140625 C-40.62150635 18.32736816 -41.42660645 18.74067383 -42.25610352 19.16650391 C-44.25 20.0625 -44.25 20.0625 -46.25 20.0625 C-46.58 20.7225 -46.91 21.3825 -47.25 22.0625 C-49.81707374 23.30345508 -52.37750383 24.44995918 -55 25.5625 C-68.44508182 31.40181707 -81.65574623 37.72620705 -94.75 44.3125 C-96.03771045 44.95322543 -97.32546945 45.5938533 -98.61328125 46.234375 C-100.98830825 47.41780554 -103.32665168 48.63835484 -105.66796875 49.890625 C-113.24035357 53.76276443 -119.73245086 55.46636198 -128.25 54.0625 C-131.8125 52.25 -131.8125 52.25 -134.25 50.0625 C-135.03375 49.52625 -135.8175 48.99 -136.625 48.4375 C-137.16125 47.98375 -137.6975 47.53 -138.25 47.0625 C-138.25 46.4025 -138.25 45.7425 -138.25 45.0625 C-139.13751953 44.68351563 -139.13751953 44.68351563 -140.04296875 44.296875 C-142.51013061 42.91701102 -143.78711829 41.49888893 -145.5625 39.3125 C-147.8163924 36.64050816 -150.04460027 34.27545618 -152.75 32.0625 C-156.05927014 29.33808968 -158.7673474 26.29209129 -161.5390625 23.03125 C-163.97482931 20.22844984 -166.59284098 17.65485026 -169.25 15.0625 C-168.92 14.4025 -168.59 13.7425 -168.25 13.0625 C-167.81453354 13.50684891 -167.37906708 13.95119781 -166.93040466 14.40901184 C-162.3837391 19.04437838 -157.82289031 23.66543935 -153.25366211 28.27856445 C-151.55176169 30.00054248 -149.8534734 31.7260985 -148.15893555 33.45532227 C-145.71830932 35.94463215 -143.26485223 38.42065653 -140.80859375 40.89453125 C-140.05726669 41.66650345 -139.30593964 42.43847565 -138.53184509 43.23384094 C-133.44560574 48.32221391 -129.37956599 51.40176944 -122.125 52.5625 C-109.84443134 50.97791049 -98.43712423 43.75108028 -87.55078125 38.234375 C-81.75882092 35.30429322 -75.9248246 32.47367786 -70.0625 29.6875 C-61.82254014 25.76903693 -53.59713424 21.82191492 -45.38360596 17.84841919 C-40.00787113 15.24869285 -34.6290236 12.65541308 -29.25 10.0625 C-27.72898682 9.32894287 -27.72898682 9.32894287 -26.17724609 8.58056641 C-23.51604406 7.29938186 -20.85237549 6.02352222 -18.1875 4.75 C-17.04619629 4.19965088 -17.04619629 4.19965088 -15.88183594 3.63818359 C-10.23244388 0.949807 -6.23722738 -0.06779595 0 0 Z " fill="#0F90A9" transform="translate(399.25,737.9375)"/>
<path d="M0 0 C0.495 0.99 0.495 0.99 1 2 C-11.37677677 30.53172749 -35.57262865 53.4672872 -64.3125 65.1875 C-76.36059061 69.88554608 -88.07005418 72.6015425 -101 73 C-101 72.67 -101 72.34 -101 72 C-99.22109375 71.65388672 -99.22109375 71.65388672 -97.40625 71.30078125 C-63.63296767 64.57281193 -33.57040778 50.87914041 -13 22 C-9.78541504 17.12684619 -6.87290585 12.07953026 -4 7 C-3.24788343 5.68331511 -2.49529437 4.36689997 -1.7421875 3.05078125 C-0.87980469 1.54064453 -0.87980469 1.54064453 0 0 Z " fill="#119DB4" transform="translate(628,559)"/>
<path d="M0 0 C2.66101084 2.66101084 3.14094016 5.59940841 4.125 9.125 C12.70621119 38.0676828 32.15291001 60.5661459 57 77 C56.01 77.495 56.01 77.495 55 78 C28.8666706 60.92903482 8.36536943 36.91196354 0.41015625 6.234375 C0 4 0 4 0 0 Z " fill="#129EB4" transform="translate(388,537)"/>
<path d="M0 0 C1.73377691 2.60066536 2.91291345 4.98056879 4.1875 7.8125 C6.58719857 12.61891381 9.20381751 16.4046252 14 19 C20.4046127 20.95258158 26.29297345 21.32079168 32.96484375 21.3359375 C34.51396202 21.3459227 34.51396202 21.3459227 36.09437561 21.35610962 C38.26854686 21.3661901 40.44274876 21.37092807 42.61694336 21.37060547 C45.92418772 21.37498238 49.23010021 21.41136255 52.53710938 21.44921875 C54.65884965 21.4550873 56.7805962 21.45905644 58.90234375 21.4609375 C59.88073715 21.47530853 60.85913055 21.48967957 61.86717224 21.50448608 C67.76784164 21.46563263 71.99582809 20.5430803 77.22608948 17.76113892 C77.81147995 17.50996307 78.39687042 17.25878723 79 17 C79.66 17.33 80.32 17.66 81 18 C76.04190218 21.4155785 72.72375006 23.08392454 66.72265625 23.31640625 C65.13046265 23.3796106 65.13046265 23.3796106 63.50610352 23.4440918 C62.36971436 23.4831665 61.2333252 23.52224121 60.0625 23.5625 C58.898396 23.6035083 57.73429199 23.6445166 56.53491211 23.68676758 C17.55148173 24.97580687 17.55148173 24.97580687 8.015625 18.046875 C3.25907969 13.2165848 0 6.77675835 0 0 Z " fill="#0F809B" transform="translate(466,855)"/>
<path d="M0 0 C1.31677734 -0.02126953 1.31677734 -0.02126953 2.66015625 -0.04296875 C4.9375 0.1875 4.9375 0.1875 6.9375 2.1875 C4.9375 3.1875 4.9375 3.1875 1.6875 2.625 C-3.12232703 2.06385351 -5.94094288 2.60438579 -9.86328125 5.53125 C-14.76722241 9.69812585 -19.23038181 14.32849011 -23.74609375 18.90625 C-25.53060412 20.66367674 -27.28945644 22.26497761 -29.25 23.8125 C-32.94939412 26.93643282 -35.92729548 30.51129345 -39.0625 34.1875 C-40.53796412 35.85744534 -42.0171064 37.52414845 -43.5 39.1875 C-44.17933594 39.950625 -44.85867187 40.71375 -45.55859375 41.5 C-46.05488281 42.056875 -46.55117187 42.61375 -47.0625 43.1875 C-48.0625 41.1875 -48.0625 41.1875 -46.9375 37.6875 C-44.73587807 33.57780573 -44.16508546 33.77258984 -40.0625 32.1875 C-38.49117634 30.60641145 -38.49117634 30.60641145 -36.91796875 28.66015625 C-33.01694338 24.08617084 -28.87252342 19.81384657 -24.625 15.5625 C-23.91279297 14.83804688 -23.20058594 14.11359375 -22.46679688 13.3671875 C-9.20352171 0.06777262 -9.20352171 0.06777262 0 0 Z " fill="#2EDEE0" transform="translate(277.0625,220.8125)"/>
<path d="M0 0 C20.75192507 3.21396927 38.7819575 18.73144935 53 33 C50 33 50 33 48.23046875 31.3828125 C47.55628906 30.63773437 46.88210938 29.89265625 46.1875 29.125 C36.08145872 18.74185759 24.04782908 12.02023624 11 6 C9.85917969 5.47019531 8.71835937 4.94039063 7.54296875 4.39453125 C5.03586261 3.24557503 2.52361788 2.11210279 0 1 C0 0.67 0 0.34 0 0 Z " fill="#14A1B6" transform="translate(551,382)"/>
<path d="M0 0 C0 3 0 3 -1.5 5.5625 C-4.19884053 11.74734289 -3.80202889 17.56721645 -1.375 23.8125 C-0.10028223 26.7116776 1.26756239 29.55811344 2.63671875 32.4140625 C3.18972656 33.57679688 3.74273437 34.73953125 4.3125 35.9375 C4.84488281 37.01902344 5.37726563 38.10054688 5.92578125 39.21484375 C7 42 7 42 6 45 C4.55015333 42.04756844 3.11754077 39.08706895 1.6875 36.125 C1.28337891 35.30257812 0.87925781 34.48015625 0.46289062 33.6328125 C-1.99194669 28.52355761 -3.90226457 23.49297897 -5.41088867 18.02685547 C-5.94669065 15.95678131 -5.94669065 15.95678131 -7 14 C-6.328125 11.7578125 -6.328125 11.7578125 -5.25 9.125 C-4.90453125 8.26132812 -4.5590625 7.39765625 -4.203125 6.5078125 C-3.03127991 4.06520032 -1.6999201 2.10047599 0 0 Z " fill="#1EADB4" transform="translate(231,257)"/>
<path d="M0 0 C4.23342106 1.64672198 7.06458797 4.79403649 10.19140625 7.9609375 C10.77792465 8.54791412 11.36444305 9.13489075 11.96873474 9.73965454 C13.20573465 10.97966994 14.44030881 12.22210931 15.67260742 13.46679688 C17.55403049 15.36644844 19.44330438 17.25800353 21.33398438 19.1484375 C22.53693065 20.35630062 23.73942 21.56461902 24.94140625 22.7734375 C25.50396622 23.33711029 26.06652618 23.90078308 26.64613342 24.48153687 C32.43272305 30.33812267 32.43272305 30.33812267 34 33 C33.67 33.99 33.34 34.98 33 36 C32.6505835 35.50693359 32.30116699 35.01386719 31.94116211 34.50585938 C26.2145987 26.7738201 19.40919259 20.21954105 12.5625 13.5 C10.75301021 11.71814151 8.94503768 9.93480421 7.13987732 8.14855957 C6.02417642 7.04511713 4.90581322 5.94435884 3.78456116 4.84655762 C2.50429798 3.58308601 1.24924777 2.29414617 0 1 C0 0.67 0 0.34 0 0 Z " fill="#21CDE1" transform="translate(761,229)"/>
<path d="M0 0 C1.60294922 0.15275391 1.60294922 0.15275391 3.23828125 0.30859375 C4.45064453 0.43427734 4.45064453 0.43427734 5.6875 0.5625 C5.6875 1.2225 5.6875 1.8825 5.6875 2.5625 C-6.8525 2.5625 -19.3925 2.5625 -32.3125 2.5625 C-32.3125 1.9025 -32.3125 1.2425 -32.3125 0.5625 C-31.39754761 0.57035522 -31.39754761 0.57035522 -30.46411133 0.57836914 C-27.68441815 0.59923335 -24.90474149 0.61219013 -22.125 0.625 C-21.16529297 0.63337891 -20.20558594 0.64175781 -19.21679688 0.65039062 C-18.28544922 0.65361328 -17.35410156 0.65683594 -16.39453125 0.66015625 C-15.54093018 0.66539307 -14.6873291 0.67062988 -13.80786133 0.67602539 C-8.98092703 0.45642609 -4.90955285 -0.48556017 0 0 Z " fill="#12B5D5" transform="translate(520.3125,874.4375)"/>
<path d="M0 0 C0 3 0 3 -2.01953125 5.36010742 C-3.40205078 6.71906128 -3.40205078 6.71906128 -4.8125 8.10546875 C-5.30081299 8.5895369 -5.78912598 9.07360504 -6.29223633 9.57234192 C-7.85459826 11.1179014 -9.42706327 12.65271107 -11 14.1875 C-12.06057762 15.23303282 -13.12048229 16.27924873 -14.1796875 17.32617188 C-16.77869434 19.89208902 -19.3868639 22.44846467 -22 25 C-22.66 24.67 -23.32 24.34 -24 24 C-23.01 23.1028125 -23.01 23.1028125 -22 22.1875 C-19.6626154 20.12498166 -19.6626154 20.12498166 -20 17 C-19.2575 16.74863281 -18.515 16.49726562 -17.75 16.23828125 C-14.79365514 14.90708619 -13.2181145 13.52635863 -11 11.1875 C-9.97519531 10.12208984 -9.97519531 10.12208984 -8.9296875 9.03515625 C-8.29289063 8.36355469 -7.65609375 7.69195313 -7 7 C-6.04527164 6.0380752 -5.08759569 5.07905194 -4.125 4.125 C-3.42375 3.42375 -2.7225 2.7225 -2 2 C-1.34 1.34 -0.68 0.68 0 0 Z " fill="#118CA6" transform="translate(793,751)"/>
<path d="M0 0 C3.0437256 4.5655884 4.51015693 9.79795121 3.6328125 15.3046875 C2.89680047 17.62850077 2.01781304 19.78475985 1 22 C0.5875 22.9075 0.175 23.815 -0.25 24.75 C-3.61940299 31.80970149 -3.61940299 31.80970149 -6 33 C-4.88786867 30.1768974 -3.73390527 27.46781053 -2.375 24.75 C-0.74273827 20.29837711 -0.71376527 16.67516732 -1 12 C-0.67 12 -0.34 12 0 12 C0 8.04 0 4.08 0 0 Z " fill="#29D7E1" transform="translate(276,383)"/>
<path d="M0 0 C1.47020158 4.53009771 -0.13944794 7.70660977 -1.875 11.9375 C-3.62735882 16.30239377 -5.1134438 20.3675442 -6 25 C-6.97265625 27.23828125 -6.97265625 27.23828125 -8.0625 29.3125 C-8.42472656 30.00988281 -8.78695313 30.70726562 -9.16015625 31.42578125 C-9.57587891 32.20501953 -9.57587891 32.20501953 -10 33 C-11.30186419 29.09440743 -10.09860879 26.81310646 -8.69140625 23.14453125 C-8.44583481 22.48289474 -8.20026337 21.82125824 -7.94725037 21.13957214 C-7.16096172 19.02720586 -6.36193327 16.91992225 -5.5625 14.8125 C-5.02714873 13.38117554 -4.49263309 11.94953823 -3.95898438 10.51757812 C-2.64899138 7.00801514 -1.32755256 3.50295647 0 0 Z " fill="#29DAE4" transform="translate(445,215)"/>
<path d="M0 0 C0.66 0.66 1.32 1.32 2 2 C-2 6 -6 10 -10 14 C-9.21376444 10.8934107 -8.35791817 7.90829719 -7 5 C-4.4375 3.625 -4.4375 3.625 -2 3 C-1.34 2.01 -0.68 1.02 0 0 Z " fill="#28D2D5" transform="translate(239,250)"/>
<path d="M0 0 C0.66 0.33 1.32 0.66 2 1 C1.01 2.485 1.01 2.485 0 4 C-0.66 4 -1.32 4 -2 4 C-2.66 5.32 -3.32 6.64 -4 8 C-4.66 7.67 -5.32 7.34 -6 7 C-4.02 4.69 -2.04 2.38 0 0 Z " fill="#0E8AA6" transform="translate(767,776)"/>
<path d="M0 0 C0.66 1.32 1.32 2.64 2 4 C1.34 3.67 0.68 3.34 0 3 C0 2.01 0 1.02 0 0 Z " fill="#1EAEC4" transform="translate(435,780)"/>
<path d="" fill="#2DAAB6" transform="translate(0,0)"/>
<path d="M0 0 C3 1 3 1 3 1 Z " fill="#27BACB" transform="translate(551,624)"/>
<path d="M0 0 C0.33 0.66 0.66 1.32 1 2 C0.34 1.67 -0.32 1.34 -1 1 C-0.67 0.67 -0.34 0.34 0 0 Z " fill="#3AB8BA" transform="translate(137,541)"/>
<path d="M0 0 C3 1 3 1 3 1 Z " fill="#25B9CD" transform="translate(821,441)"/>
<path d="M0 0 C3 1 3 1 3 1 Z " fill="#2DC6D3" transform="translate(536,381)"/>
<path d="" fill="#33CCD0" transform="translate(0,0)"/>
<path d="" fill="#1CA3B9" transform="translate(0,0)"/>
<path d="" fill="#1EAEC5" transform="translate(0,0)"/>
<path d="" fill="#1FAFC4" transform="translate(0,0)"/>
<path d="M0 0 C2 1 2 1 2 1 Z " fill="#1FAEC2" transform="translate(324,773)"/>
<path d="" fill="#20B4CA" transform="translate(0,0)"/>
<path d="" fill="#2DACB7" transform="translate(0,0)"/>
<path d="" fill="#2FADB7" transform="translate(0,0)"/>
<path d="M0 0 C2 1 2 1 2 1 Z " fill="#2CC0CE" transform="translate(240,583)"/>
<path d="M0 0 C2 1 2 1 2 1 Z " fill="#30C1CA" transform="translate(185,563)"/>
<path d="M0 0 C2 1 2 1 2 1 Z " fill="#23B0C8" transform="translate(868,551)"/>
<path d="" fill="#38B6BB" transform="translate(0,0)"/>
<path d="" fill="#29C0D0" transform="translate(0,0)"/>
<path d="" fill="#2DC4CF" transform="translate(0,0)"/>
<path d="" fill="#2ABFCE" transform="translate(0,0)"/>
<path d="M0 0 C2 1 2 1 2 1 Z " fill="#25B6CB" transform="translate(844,449)"/>
<path d="M0 0 C2 1 2 1 2 1 Z " fill="#25BED0" transform="translate(796,432)"/>
<path d="M0 0 C2 1 2 1 2 1 Z " fill="#34CFD5" transform="translate(249,424)"/>
<path d="M0 0 C2 1 2 1 2 1 Z " fill="#29C5D6" transform="translate(562,389)"/>
<path d="M0 0 C2 1 2 1 2 1 Z " fill="#2CC7D3" transform="translate(483,382)"/>
<path d="" fill="#36CDD2" transform="translate(0,0)"/>
<path d="" fill="#35C8CB" transform="translate(0,0)"/>
<path d="" fill="#35C7C8" transform="translate(0,0)"/>
<path d="" fill="#38C9C8" transform="translate(0,0)"/>
<path d="" fill="#37C8C7" transform="translate(0,0)"/>
<path d="M0 0 C2 1 2 1 2 1 Z " fill="#31CFD5" transform="translate(379,264)"/>
<path d="M0 0 C2 1 2 1 2 1 Z " fill="#42BAB6" transform="translate(224,259)"/>
<path d="M0 0 C2 1 2 1 2 1 Z " fill="#32CFD2" transform="translate(362,256)"/>
<path d="" fill="#30B8C4" transform="translate(0,0)"/>
<path d="M0 0 C2 1 2 1 2 1 Z " fill="#3CC1BD" transform="translate(240,240)"/>
<path d="M0 0 C2 1 2 1 2 1 Z " fill="#40C4C3" transform="translate(278,217)"/>
<path d="" fill="#2FC9D5" transform="translate(0,0)"/>
<path d="" fill="#2ECAD6" transform="translate(0,0)"/>
<path d="" fill="#2DCAD4" transform="translate(0,0)"/>
<path d="" fill="#37CBD0" transform="translate(0,0)"/>
<path d="" fill="#1B2220" transform="translate(0,0)"/>
<path d="" fill="#203330" transform="translate(0,0)"/>
<path d="" fill="#1F9BB0" transform="translate(0,0)"/>
<path d="" fill="#2298A9" transform="translate(0,0)"/>
<path d="" fill="#1F9DAF" transform="translate(0,0)"/>
<path d="" fill="#1E9FB6" transform="translate(0,0)"/>
<path d="" fill="#1CA1B9" transform="translate(0,0)"/>
<path d="" fill="#1DA3B9" transform="translate(0,0)"/>
<path d="" fill="#1FA9BE" transform="translate(0,0)"/>
<path d="" fill="#1FAABE" transform="translate(0,0)"/>
<path d="" fill="#1FAABF" transform="translate(0,0)"/>
<path d="" fill="#1FAEC3" transform="translate(0,0)"/>
<path d="" fill="#22A4B9" transform="translate(0,0)"/>
<path d="" fill="#1DA2B9" transform="translate(0,0)"/>
<path d="" fill="#20AFC3" transform="translate(0,0)"/>
<path d="" fill="#21ACBF" transform="translate(0,0)"/>
<path d="" fill="#1CADC1" transform="translate(0,0)"/>
<path d="" fill="#22ADC1" transform="translate(0,0)"/>
<path d="" fill="#1CAAC4" transform="translate(0,0)"/>
<path d="" fill="#2BADBA" transform="translate(0,0)"/>
<path d="" fill="#1CABC5" transform="translate(0,0)"/>
<path d="" fill="#20B3C7" transform="translate(0,0)"/>
<path d="" fill="#1CA9C2" transform="translate(0,0)"/>
<path d="" fill="#1CB4C7" transform="translate(0,0)"/>
<path d="" fill="#20A1B6" transform="translate(0,0)"/>
<path d="" fill="#20B2C5" transform="translate(0,0)"/>
<path d="" fill="#1FB4C9" transform="translate(0,0)"/>
<path d="" fill="#22B5C8" transform="translate(0,0)"/>
<path d="" fill="#21B5C9" transform="translate(0,0)"/>
<path d="" fill="#1EB5CF" transform="translate(0,0)"/>
<path d="" fill="#1FB1CC" transform="translate(0,0)"/>
<path d="" fill="#21B8CF" transform="translate(0,0)"/>
<path d="" fill="#23A3B9" transform="translate(0,0)"/>
<path d="" fill="#2CB7C4" transform="translate(0,0)"/>
<path d="" fill="#2CB9C8" transform="translate(0,0)"/>
<path d="" fill="#1FACC1" transform="translate(0,0)"/>
<path d="" fill="#1FAEC7" transform="translate(0,0)"/>
<path d="" fill="#1FB1C7" transform="translate(0,0)"/>
<path d="" fill="#28BAC7" transform="translate(0,0)"/>
<path d="" fill="#1FB2C7" transform="translate(0,0)"/>
<path d="" fill="#21B3CA" transform="translate(0,0)"/>
<path d="" fill="#27BCCD" transform="translate(0,0)"/>
<path d="" fill="#24BCCC" transform="translate(0,0)"/>
<path d="" fill="#21BACA" transform="translate(0,0)"/>
<path d="" fill="#28BDCE" transform="translate(0,0)"/>
<path d="" fill="#2BC7D1" transform="translate(0,0)"/>
<path d="" fill="#23BBCD" transform="translate(0,0)"/>
<path d="" fill="#24BED1" transform="translate(0,0)"/>
<path d="" fill="#23B9CD" transform="translate(0,0)"/>
<path d="" fill="#2AC4D1" transform="translate(0,0)"/>
<path d="" fill="#28C0D0" transform="translate(0,0)"/>
<path d="" fill="#29C4D2" transform="translate(0,0)"/>
<path d="" fill="#2BC5CF" transform="translate(0,0)"/>
<path d="" fill="#22B1CA" transform="translate(0,0)"/>
<path d="" fill="#28BFCC" transform="translate(0,0)"/>
<path d="" fill="#2EC5CE" transform="translate(0,0)"/>
<path d="" fill="#20B4C9" transform="translate(0,0)"/>
<path d="" fill="#28BFCF" transform="translate(0,0)"/>
<path d="" fill="#2AC1D2" transform="translate(0,0)"/>
<path d="" fill="#2ABFD0" transform="translate(0,0)"/>
<path d="" fill="#23B4CB" transform="translate(0,0)"/>
<path d="" fill="#2EC2CF" transform="translate(0,0)"/>
<path d="" fill="#23B1C4" transform="translate(0,0)"/>
<path d="" fill="#2FC3CE" transform="translate(0,0)"/>
<path d="" fill="#30BFC7" transform="translate(0,0)"/>
<path d="" fill="#37BBC0" transform="translate(0,0)"/>
<path d="" fill="#38B7BB" transform="translate(0,0)"/>
<path d="" fill="#29C1CE" transform="translate(0,0)"/>
<path d="" fill="#2BC2D0" transform="translate(0,0)"/>
<path d="" fill="#38BABD" transform="translate(0,0)"/>
<path d="" fill="#39BEC0" transform="translate(0,0)"/>
<path d="" fill="#3CBEC1" transform="translate(0,0)"/>
<path d="" fill="#26BECC" transform="translate(0,0)"/>
<path d="" fill="#3EBEBD" transform="translate(0,0)"/>
<path d="" fill="#28BECC" transform="translate(0,0)"/>
<path d="" fill="#2EC1D0" transform="translate(0,0)"/>
<path d="" fill="#29BFCE" transform="translate(0,0)"/>
<path d="" fill="#2CC2D1" transform="translate(0,0)"/>
<path d="" fill="#2BC1CE" transform="translate(0,0)"/>
<path d="" fill="#2ABDCD" transform="translate(0,0)"/>
<path d="" fill="#3CC4C6" transform="translate(0,0)"/>
<path d="" fill="#28C0CE" transform="translate(0,0)"/>
<path d="" fill="#27B7CB" transform="translate(0,0)"/>
<path d="" fill="#2CC3D1" transform="translate(0,0)"/>
<path d="" fill="#25BACB" transform="translate(0,0)"/>
<path d="" fill="#36CBCF" transform="translate(0,0)"/>
<path d="" fill="#35C9CE" transform="translate(0,0)"/>
<path d="" fill="#26BCCD" transform="translate(0,0)"/>
<path d="" fill="#32CCCE" transform="translate(0,0)"/>
<path d="" fill="#35CBCF" transform="translate(0,0)"/>
<path d="" fill="#26C1D4" transform="translate(0,0)"/>
<path d="" fill="#2ABFCE" transform="translate(0,0)"/>
<path d="" fill="#27C5D4" transform="translate(0,0)"/>
<path d="" fill="#2AC3CF" transform="translate(0,0)"/>
<path d="" fill="#2CC3D0" transform="translate(0,0)"/>
<path d="" fill="#2CC4D0" transform="translate(0,0)"/>
<path d="" fill="#34D2D6" transform="translate(0,0)"/>
<path d="" fill="#2AC3CE" transform="translate(0,0)"/>
<path d="" fill="#2AC2D1" transform="translate(0,0)"/>
<path d="" fill="#2AC4D1" transform="translate(0,0)"/>
<path d="" fill="#28C6D7" transform="translate(0,0)"/>
<path d="" fill="#2CC6D2" transform="translate(0,0)"/>
<path d="" fill="#2CC6D4" transform="translate(0,0)"/>
<path d="" fill="#2EC7D5" transform="translate(0,0)"/>
<path d="" fill="#2DC8D7" transform="translate(0,0)"/>
<path d="" fill="#35CCD2" transform="translate(0,0)"/>
<path d="" fill="#2DCAD4" transform="translate(0,0)"/>
<path d="" fill="#2BC5D2" transform="translate(0,0)"/>
<path d="" fill="#30CBD0" transform="translate(0,0)"/>
<path d="" fill="#32CDD0" transform="translate(0,0)"/>
<path d="" fill="#30CCCF" transform="translate(0,0)"/>
<path d="" fill="#36CECD" transform="translate(0,0)"/>
<path d="" fill="#2CBCC7" transform="translate(0,0)"/>
<path d="" fill="#37C7C9" transform="translate(0,0)"/>
<path d="" fill="#37C5C7" transform="translate(0,0)"/>
<path d="" fill="#38C2C1" transform="translate(0,0)"/>
<path d="" fill="#38C3C3" transform="translate(0,0)"/>
<path d="" fill="#3AC1C0" transform="translate(0,0)"/>
<path d="" fill="#2AB8C5" transform="translate(0,0)"/>
<path d="" fill="#41C1BD" transform="translate(0,0)"/>
<path d="" fill="#31B5C2" transform="translate(0,0)"/>
<path d="" fill="#2DB7C4" transform="translate(0,0)"/>
<path d="" fill="#2BCAD8" transform="translate(0,0)"/>
<path d="" fill="#31D1D5" transform="translate(0,0)"/>
<path d="" fill="#3EC0BB" transform="translate(0,0)"/>
<path d="" fill="#29C6D7" transform="translate(0,0)"/>
<path d="" fill="#32D1D6" transform="translate(0,0)"/>
<path d="" fill="#32D0D3" transform="translate(0,0)"/>
<path d="" fill="#2DBAC5" transform="translate(0,0)"/>
<path d="" fill="#3FC4C1" transform="translate(0,0)"/>
<path d="" fill="#34CDCF" transform="translate(0,0)"/>
<path d="" fill="#3FC3C1" transform="translate(0,0)"/>
<path d="" fill="#35D0CF" transform="translate(0,0)"/>
<path d="" fill="#3FC6C1" transform="translate(0,0)"/>
<path d="" fill="#3CC8C4" transform="translate(0,0)"/>
<path d="" fill="#3EC6C2" transform="translate(0,0)"/>
<path d="" fill="#36CFD1" transform="translate(0,0)"/>
<path d="" fill="#3DC7C2" transform="translate(0,0)"/>
<path d="" fill="#2CC8D6" transform="translate(0,0)"/>
<path d="" fill="#36D1D3" transform="translate(0,0)"/>
<path d="" fill="#3DC7C2" transform="translate(0,0)"/>
<path d="" fill="#3DC7C1" transform="translate(0,0)"/>
<path d="" fill="#30CBD8" transform="translate(0,0)"/>
<path d="" fill="#3DC7C4" transform="translate(0,0)"/>
<path d="" fill="#3FC5C5" transform="translate(0,0)"/>
<path d="" fill="#3DC5C2" transform="translate(0,0)"/>
<path d="" fill="#3DC5C1" transform="translate(0,0)"/>
<path d="" fill="#2FC7D2" transform="translate(0,0)"/>
<path d="" fill="#2FC4D1" transform="translate(0,0)"/>
<path d="" fill="#41C5C4" transform="translate(0,0)"/>
<path d="" fill="#2DC3D1" transform="translate(0,0)"/>
<path d="" fill="#41C4C0" transform="translate(0,0)"/>
<path d="" fill="#31C0CE" transform="translate(0,0)"/>
<path d="" fill="#33BBC4" transform="translate(0,0)"/>
<path d="" fill="#31C0CA" transform="translate(0,0)"/>
<path d="" fill="#41C3C4" transform="translate(0,0)"/>
<path d="" fill="#36CBCE" transform="translate(0,0)"/>
<path d="" fill="#30C8D4" transform="translate(0,0)"/>
<path d="" fill="#30C9D5" transform="translate(0,0)"/>
<path d="" fill="#33C9D5" transform="translate(0,0)"/>
<path d="" fill="#36CCCE" transform="translate(0,0)"/>
<path d="" fill="#31C4CE" transform="translate(0,0)"/>
<path d="" fill="#3CC7CC" transform="translate(0,0)"/>
<path d="" fill="#3CC6C6" transform="translate(0,0)"/>
<path d="" fill="#36BEC8" transform="translate(0,0)"/>
<path d="" fill="#3AC1C1" transform="translate(0,0)"/>
<path d="" fill="#3ABFC7" transform="translate(0,0)"/>
<path d="" fill="#39C0C6" transform="translate(0,0)"/>
</svg>
