<?xml version="1.0" encoding="UTF-8"?>
<svg version="1.1" xmlns="http://www.w3.org/2000/svg" width="96" height="96">
<path d="M0 0 C0.495 0.495 0.495 0.495 1 1 C0.93517852 3.08607309 0.79755065 5.17006513 0.625 7.25 C0.53476563 8.38953125 0.44453125 9.5290625 0.3515625 10.703125 C0.05038693 13.52748261 -0.38555321 16.22978229 -1 19 C-4.71599191 19.20086443 -5.77208445 19.1519437 -9 17 C-9.39791748 17.41886475 -9.79583496 17.83772949 -10.20581055 18.26928711 C-12.02237712 20.16922842 -13.85459322 22.0533231 -15.6875 23.9375 C-16.31333984 24.59685547 -16.93917969 25.25621094 -17.58398438 25.93554688 C-20.16399319 28.56958729 -22.23026964 30.67141496 -25.64453125 32.12890625 C-28.74536145 31.95920907 -30.50404474 30.78282518 -33 29 C-34.30324219 30.40765625 -34.30324219 30.40765625 -35.6328125 31.84375 C-36.79605712 33.06328065 -37.96016528 34.28198804 -39.125 35.5 C-39.69476563 36.12003906 -40.26453125 36.74007812 -40.8515625 37.37890625 C-45.18933482 41.86455717 -45.18933482 41.86455717 -49.1796875 42.53125 C-51.82424902 42.03310545 -53.71798975 41.404314 -56 40 C-56.79664062 40.86625 -57.59328125 41.7325 -58.4140625 42.625 C-59.483554 43.75078052 -60.55391245 44.87573789 -61.625 46 C-62.14707031 46.57234375 -62.66914062 47.1446875 -63.20703125 47.734375 C-67.23937948 51.91606946 -67.23937948 51.91606946 -71.3984375 52.375 C-72.68621094 52.189375 -72.68621094 52.189375 -74 52 C-74.66 50.35 -75.32 48.7 -76 47 C-73.7198272 44.28402626 -71.37522472 41.63322327 -69 39 C-68.56623047 38.51869629 -68.13246094 38.03739258 -67.68554688 37.54150391 C-66.28773815 36.00951733 -64.86633326 34.50304568 -63.4375 33 C-62.54933594 32.05125 -61.66117188 31.1025 -60.74609375 30.125 C-58 28 -58 28 -54.91015625 27.5625 C-52.13136777 27.98025075 -50.44086938 28.69418241 -48 30 C-47.11957031 29.0615625 -46.23914063 28.123125 -45.33203125 27.15625 C-44.15953055 25.93684927 -42.98631591 24.71813474 -41.8125 23.5 C-41.23435547 22.87996094 -40.65621094 22.25992187 -40.06054688 21.62109375 C-35.72227428 17.16027108 -35.72227428 17.16027108 -32.32421875 16.40625 C-30 17 -30 17 -26 20 C-22.7 16.7 -19.4 13.4 -16 10 C-16.66 9.01 -17.32 8.02 -18 7 C-18.125 4.3125 -18.125 4.3125 -18 2 C-16.12612523 1.6603981 -14.25083303 1.32861309 -12.375 1 C-11.33085938 0.814375 -10.28671875 0.62875 -9.2109375 0.4375 C-6.08222467 0.01120336 -3.1527413 -0.14792921 0 0 Z " fill="#FFFFFF" transform="translate(87,8)"/>
<path d="M0 0 C2.475 0.99 2.475 0.99 5 2 C5 15.86 5 29.72 5 44 C3.35 44.66 1.7 45.32 0 46 C-3 44 -3 44 -3.38095093 42.1784668 C-3.3845311 41.07498901 -3.3845311 41.07498901 -3.38818359 39.94921875 C-3.39764008 39.11495361 -3.40709656 38.28068848 -3.4168396 37.42114258 C-3.41076691 36.51904053 -3.40469421 35.61693848 -3.3984375 34.6875 C-3.40130768 33.76283936 -3.40417786 32.83817871 -3.40713501 31.88549805 C-3.40917849 29.92854196 -3.40362882 27.97156557 -3.39111328 26.01464844 C-3.37506364 23.01190707 -3.39095237 20.01051179 -3.41015625 17.0078125 C-3.40817387 15.10937202 -3.4043303 13.21093237 -3.3984375 11.3125 C-3.40451019 10.41039795 -3.41058289 9.5082959 -3.4168396 8.57885742 C-3.40738312 7.74459229 -3.39792664 6.91032715 -3.38818359 6.05078125 C-3.38579681 5.31512939 -3.38341003 4.57947754 -3.38095093 3.8215332 C-3 2 -3 2 0 0 Z " fill="#FFFFFF" transform="translate(79,39)"/>
<path d="M0 0 C2.475 0.99 2.475 0.99 5 2 C5 13.22 5 24.44 5 36 C3.35 36.66 1.7 37.32 0 38 C-0.99 37.34 -1.98 36.68 -3 36 C-3.30441916 33.39922648 -3.42017445 31.04016599 -3.3984375 28.4375 C-3.40130768 27.69040771 -3.40417786 26.94331543 -3.40713501 26.17358398 C-3.40917747 24.59325401 -3.40363481 23.01289887 -3.39111328 21.43261719 C-3.37506089 19.00919236 -3.39095439 16.58743526 -3.41015625 14.1640625 C-3.40817385 12.63020464 -3.40433023 11.09634782 -3.3984375 9.5625 C-3.40451019 8.83538818 -3.41058289 8.10827637 -3.4168396 7.35913086 C-3.38818359 5.31640625 -3.38818359 5.31640625 -3 2 C-2.01 1.34 -1.02 0.68 0 0 Z " fill="#FFFFFF" transform="translate(63,47)"/>
<path d="M0 0 C2.475 0.99 2.475 0.99 5 2 C5 10.58 5 19.16 5 28 C3.35 28.66 1.7 29.32 0 30 C-0.99 29.34 -1.98 28.68 -3 28 C-3.38818359 25.41796875 -3.38818359 25.41796875 -3.3984375 22.1875 C-3.40230469 21.02992187 -3.40617187 19.87234375 -3.41015625 18.6796875 C-3.39855469 17.46539062 -3.38695312 16.25109375 -3.375 15 C-3.38660156 13.78570312 -3.39820313 12.57140625 -3.41015625 11.3203125 C-3.40628906 10.16273437 -3.40242188 9.00515625 -3.3984375 7.8125 C-3.39505371 6.74644531 -3.39166992 5.68039063 -3.38818359 4.58203125 C-3.26008301 3.72996094 -3.13198242 2.87789062 -3 2 C-2.01 1.34 -1.02 0.68 0 0 Z " fill="#FFFFFF" transform="translate(47,55)"/>
<path d="M0 0 C2.475 0.99 2.475 0.99 5 2 C5 7.94 5 13.88 5 20 C3.35 20.66 1.7 21.32 0 22 C-3 20 -3 20 -3.38818359 18.15234375 C-3.39156738 17.42144531 -3.39495117 16.69054687 -3.3984375 15.9375 C-3.40230469 15.14085938 -3.40617187 14.34421875 -3.41015625 13.5234375 C-3.39855469 12.69070312 -3.38695313 11.85796875 -3.375 11 C-3.39240234 9.75089844 -3.39240234 9.75089844 -3.41015625 8.4765625 C-3.40628906 7.67992188 -3.40242188 6.88328125 -3.3984375 6.0625 C-3.39505371 5.33160156 -3.39166992 4.60070312 -3.38818359 3.84765625 C-3 2 -3 2 0 0 Z " fill="#FFFFFF" transform="translate(31,63)"/>
<path d="M0 0 C2.6875 0.875 2.6875 0.875 5 2 C5 5.3 5 8.6 5 12 C2.6875 13.125 2.6875 13.125 0 14 C-0.99 13.34 -1.98 12.68 -3 12 C-3.3984375 9.6875 -3.3984375 9.6875 -3.375 7 C-3.38273438 6.113125 -3.39046875 5.22625 -3.3984375 4.3125 C-3.26695313 3.549375 -3.13546875 2.78625 -3 2 C-2.01 1.34 -1.02 0.68 0 0 Z " fill="#FFFFFF" transform="translate(15,71)"/>
</svg>
