<?xml version="1.0" standalone="no"?>
<!DOCTYPE svg PUBLIC "-//W3C//DTD SVG 20010904//EN"
 "http://www.w3.org/TR/2001/REC-SVG-20010904/DTD/svg10.dtd">
<svg version="1.0" xmlns="http://www.w3.org/2000/svg"
 width="429.000000pt" height="419.000000pt" viewBox="0 0 429.000000 419.000000"
 preserveAspectRatio="xMidYMid meet">

<defs>
  <linearGradient id="grad1" x1="0%" y1="0%" x2="100%" y2="100%">
    <stop offset="0%" stop-color="#04C1EE" />
    <stop offset="100%" stop-color="#12B2A8" />
  </linearGradient>
</defs>

<g transform="translate(0.000000,419.000000) scale(0.100000,-0.100000)"
fill="url(#grad1)" stroke="none">
<path d="M528 4170 c-80 -14 -174 -49 -235 -89 -127 -82 -244 -248 -273 -384
-7 -36 -10 -539 -8 -1632 l3 -1580 23 -62 c66 -176 213 -320 392 -385 l65 -23
1640 0 c1582 0 1642 1 1695 19 221 76 364 225 427 446 17 62 18 140 18 1615 0
1434 -1 1555 -17 1612 -62 223 -217 381 -441 451 -47 15 -213 17 -1647 18
-877 1 -1616 -2 -1642 -6z m3146 -852 c14 -20 16 -88 16 -540 l0 -517 -22 -15
c-12 -9 -29 -16 -38 -16 -8 0 -88 75 -177 167 l-161 168 -734 -730 c-403 -402
-878 -871 -1055 -1043 -276 -268 -325 -312 -351 -312 -26 0 -52 23 -183 161
-117 122 -155 168 -157 191 -3 27 67 100 860 896 827 832 1208 1224 1208 1245
0 5 -61 72 -135 148 -108 111 -135 145 -135 167 0 15 5 33 12 40 9 9 139 12
524 12 l513 0 15 -22z m-2763 -607 c17 -20 19 -40 19 -161 0 -124 -2 -140 -21
-164 l-20 -26 -150 0 c-146 0 -151 1 -174 25 -24 23 -25 29 -25 160 0 143 6
170 43 185 12 5 87 8 165 7 138 -2 145 -3 163 -26z m523 -532 l26 -20 0 -149
0 -149 -26 -20 c-24 -19 -40 -21 -162 -21 -187 0 -182 -5 -182 190 0 197 -7
190 179 190 125 0 141 -2 165 -21z m-525 -535 c19 -24 21 -40 21 -168 -1 -194
-3 -196 -200 -196 l-132 0 -30 30 -29 30 3 146 c4 192 -4 184 198 184 149 0
149 0 169 -26z"/>
</g>
</svg>
