<?xml version="1.0" encoding="UTF-8"?>
<svg version="1.1" xmlns="http://www.w3.org/2000/svg" width="100" height="100">
<path d="M0 0 C10.06866931 7.25087772 17.72756886 16.79280068 20.3125 29.25 C21.70668558 45.91292143 19.18676434 58.15716957 8.640625 71.33984375 C2.22382219 78.48333577 -8.09918475 84.61508614 -17.80297852 85.42700195 C-34.86566428 85.88895149 -46.79126814 83.44661518 -59.8125 71.75 C-70.07212814 61.14084545 -72.17133125 48.37416494 -71.96484375 34.2578125 C-71.50503107 21.94581333 -64.87448062 11.59167312 -56.171875 3.17578125 C-39.79726859 -9.51711334 -17.57628553 -10.86641977 0 0 Z M-59.3046875 14.18359375 C-66.3717392 24.74424446 -67.93601941 35.84283836 -66.6875 48.25 C-64.05330406 58.63917796 -57.65044739 68.25211082 -48.6875 74.25 C-37.34051592 80.13833676 -25.71857745 82.53984696 -13.11328125 79.34375 C-0.29860322 74.224442 7.90519989 66.27791871 13.33203125 53.703125 C16.96257095 44.6195436 16.82304519 32.72551536 13.1875 23.625 C7.40354382 11.86212283 -0.61316566 4.32647893 -12.6875 -0.75 C-30.07906363 -5.7269926 -47.96402394 0.3331112 -59.3046875 14.18359375 Z " fill="#00BEFF" transform="translate(75.6875,10.75)"/>
<path d="M0 0 C2.31 0 4.62 0 7 0 C7 9.9 7 19.8 7 30 C5.02 30 3.04 30 1 30 C0 29 0 29 -0.11352539 26.22436523 C-0.10828857 25.01466064 -0.10305176 23.80495605 -0.09765625 22.55859375 C-0.09443359 21.25341797 -0.09121094 19.94824219 -0.08789062 18.60351562 C-0.07953401 17.2148431 -0.07106905 15.82617123 -0.0625 14.4375 C-0.05748666 13.04492344 -0.05292347 11.65234519 -0.04882812 10.25976562 C-0.03699434 6.8398013 -0.0205088 3.41992156 0 0 Z " fill="#00BEFF" transform="translate(46,28)"/>
<path d="M0 0 C2.64 0 5.28 0 8 0 C8 2.64 8 5.28 8 8 C5.36 8 2.72 8 0 8 C0 5.36 0 2.72 0 0 Z " fill="#00BAFF" transform="translate(46,64)"/>
</svg>
