<?xml version="1.0" encoding="UTF-8"?>
<svg version="1.1" xmlns="http://www.w3.org/2000/svg" width="128" height="128">
<path d="M0 0 C0 1.98 0 3.96 0 6 C-1.03294189 6.37286133 -2.06588379 6.74572266 -3.13012695 7.12988281 C-7.01233513 8.53128337 -10.89448186 9.93285408 -14.77661133 11.33447266 C-16.44749336 11.9377082 -18.11839141 12.54089939 -19.78930664 13.14404297 C-22.20984176 14.01778297 -24.63031662 14.89168975 -27.05078125 15.765625 C-27.78146317 16.02933899 -28.51214508 16.29305298 -29.26496887 16.5647583 C-35.18001184 18.7007288 -41.08969648 20.85079872 -47 23 C-47 40.82 -47 58.64 -47 77 C-34.25561579 81.56374383 -34.25561579 81.56374383 -21.51025391 86.12475586 C-19.91565453 86.69635258 -18.32108842 87.26804215 -16.7265625 87.83984375 C-15.89471436 88.13701294 -15.06286621 88.43418213 -14.20581055 88.74035645 C-13.41424561 89.02447388 -12.62268066 89.30859131 -11.80712891 89.60131836 C-11.11873932 89.84780624 -10.43034973 90.09429413 -9.72109985 90.34825134 C-8 91 -8 91 -6 92 C-6 72.86 -6 53.72 -6 34 C-0.121875 31.855 5.75625 29.71 11.8125 27.5 C13.66464111 26.82130859 15.51678223 26.14261719 17.42504883 25.44335938 C18.89390465 24.90977534 20.36289005 24.37654779 21.83203125 23.84375 C22.59398804 23.56305664 23.35594482 23.28236328 24.14099121 22.99316406 C27.21840655 21.88132368 29.70113397 21 33 21 C33 20.34 33 19.68 33 19 C32.39671875 18.86722656 31.7934375 18.73445313 31.171875 18.59765625 C30.37265625 18.42105469 29.5734375 18.24445312 28.75 18.0625 C27.56664063 17.80146484 27.56664063 17.80146484 26.359375 17.53515625 C24 17 24 17 22.12188721 16.3875885 C19.52145712 15.91258832 18.16353571 16.36208488 15.69042969 17.26342773 C14.84986023 17.56381454 14.00929077 17.86420135 13.14324951 18.1736908 C12.24519592 18.50695877 11.34714233 18.84022675 10.421875 19.18359375 C9.4953009 19.51794937 8.56872681 19.85230499 7.61407471 20.1967926 C4.65562158 21.26697655 1.7028685 22.35201364 -1.25 23.4375 C-3.25485091 24.16569835 -5.2600554 24.892924 -7.265625 25.61914062 C-12.18125736 27.40149967 -17.09182992 29.19719867 -22 31 C-22.33 34.63 -22.66 38.26 -23 42 C-24.98 42 -26.96 42 -29 42 C-29 36.39 -29 30.78 -29 25 C-23.12871067 22.89957121 -17.25712051 20.7999863 -11.38525391 18.70117188 C-9.38907784 17.98753489 -7.39298318 17.27367016 -5.39697266 16.55957031 C-2.52267652 15.53129695 0.35191444 14.50385156 3.2265625 13.4765625 C4.11429352 13.15877838 5.00202454 12.84099426 5.91665649 12.51358032 C7.5628535 11.92563168 9.21075406 11.34242165 10.86065674 10.76495361 C12.64740079 10.12607703 14.41353334 9.42993216 16.17333984 8.72021484 C26.23352814 6.15694351 40.58246363 14.30271405 48 17 C48 38.78 48 60.56 48 83 C38.1 86.63 28.2 90.26 18 94 C11.22010122 96.53029846 11.22010122 96.53029846 4.4453125 99.07421875 C-3.96159321 101.33321722 -10.15842513 99.26031727 -18.0625 96.28125 C-18.97837891 95.94706055 -19.89425781 95.61287109 -20.83789062 95.26855469 C-24.23043753 94.02641939 -27.6147572 92.76190561 -31 91.5 C-38.59 88.695 -46.18 85.89 -54 83 C-54 61.22 -54 39.44 -54 17 C-33.3125 9.625 -33.3125 9.625 -26.8059082 7.30712891 C-25.09583882 6.69701595 -23.3857948 6.08683193 -21.67578125 5.4765625 C-20.79450562 5.16291748 -19.91322998 4.84927246 -19.00524902 4.52612305 C-14.03375955 2.7509895 -14.03375955 2.7509895 -9.13354492 0.79052734 C-6.07452528 -0.34290962 -3.22666432 -0.12653586 0 0 Z M31.30859375 28.02734375 C30.44814957 28.33571671 29.58770538 28.64408966 28.70118713 28.96180725 C26.88071861 29.61515713 25.06082248 30.27010376 23.24145508 30.92651367 C20.44707702 31.93404694 17.65045395 32.93514614 14.85351562 33.93554688 C13.08840334 34.56992774 11.32342475 35.20468077 9.55859375 35.83984375 C8.71695175 36.14091537 7.87530975 36.441987 7.00816345 36.75218201 C3.21770355 37.88085684 3.21770355 37.88085684 0 40 C-0.09340434 41.62674778 -0.11745171 43.25754051 -0.11352539 44.88696289 C-0.11344986 45.92796646 -0.11337433 46.96897003 -0.11329651 48.04151917 C-0.10813522 49.1737944 -0.10297394 50.30606964 -0.09765625 51.47265625 C-0.0962413 52.62543564 -0.09482635 53.77821503 -0.09336853 54.96592712 C-0.08775005 58.66481064 -0.07519442 62.36363464 -0.0625 66.0625 C-0.05748738 68.56315017 -0.05292406 71.06380129 -0.04882812 73.56445312 C-0.03777462 79.70965588 -0.02101852 85.85482369 0 92 C5.96271272 90.24917998 11.86405765 88.40896251 17.72265625 86.3359375 C18.39421249 86.09839752 19.06576874 85.86085754 19.75767517 85.61611938 C21.1535751 85.12158734 22.54904757 84.62584705 23.9440918 84.12890625 C26.08829489 83.36582003 28.23448114 82.60850605 30.38085938 81.8515625 C31.7449129 81.367529 33.10884972 80.88316648 34.47265625 80.3984375 C35.70250244 79.96192871 36.93234863 79.52541992 38.19946289 79.07568359 C40.86647429 78.26904222 40.86647429 78.26904222 42 77 C42.09340434 75.37325222 42.11745171 73.74245949 42.11352539 72.11303711 C42.11344986 71.07203354 42.11337433 70.03102997 42.11329651 68.95848083 C42.10813522 67.8262056 42.10297394 66.69393036 42.09765625 65.52734375 C42.0962413 64.37456436 42.09482635 63.22178497 42.09336853 62.03407288 C42.08775005 58.33518936 42.07519442 54.63636536 42.0625 50.9375 C42.05748738 48.43684983 42.05292406 45.93619871 42.04882812 43.43554688 C42.03777462 37.29034412 42.02101852 31.14517631 42 25 C38.28804586 25 34.77494712 26.77601561 31.30859375 28.02734375 Z " fill="#00BEFF" transform="translate(67,14)"/>
</svg>
