<?xml version="1.0" encoding="UTF-8"?>
<svg version="1.1" xmlns="http://www.w3.org/2000/svg" width="96" height="96">
<path d="M0 0 C1.63630371 -0.00717545 1.63630371 -0.00717545 3.30566406 -0.01449585 C5.60873865 -0.01789363 7.91186155 -0.00869993 10.21484375 0.01220703 C13.73807417 0.0389719 17.25811856 0.01245249 20.78125 -0.01953125 C23.02084036 -0.01622713 25.26042874 -0.00982087 27.5 0 C29.0782959 -0.01518173 29.0782959 -0.01518173 30.68847656 -0.03067017 C35.3090367 0.0432985 37.9773431 0.16132837 41.91162109 2.72119141 C44.1756866 6.34550026 44.4739404 9.25966795 44.4140625 13.4140625 C44.41884613 14.14979492 44.42362976 14.88552734 44.42855835 15.64355469 C44.4319488 17.19338123 44.42280592 18.74328011 44.40185547 20.29296875 C44.37507002 22.65788036 44.40162417 25.01804752 44.43359375 27.3828125 C44.43028949 28.89323958 44.4238829 30.40366373 44.4140625 31.9140625 C44.42418365 32.6162793 44.43430481 33.31849609 44.44473267 34.04199219 C44.3580355 37.69557161 43.79079695 39.60511954 41.69824219 42.62841797 C38.0030632 45.1797928 35.22809365 45.21923063 30.9140625 44.984375 C29.36528691 44.95368473 27.81645216 44.92587241 26.26757812 44.90063477 C25.46650635 44.88074493 24.66543457 44.8608551 23.84008789 44.84036255 C7.45291851 44.12937398 7.45291851 44.12937398 -6.75 51.2265625 C-7.79735693 52.2321871 -8.83042608 53.25305914 -9.84375 54.29296875 C-12.25 56.6640625 -12.25 56.6640625 -16.25 56.6640625 C-16.37682581 49.49262381 -16.46436241 42.32147452 -16.5246582 35.14916992 C-16.54979496 32.70960686 -16.58390946 30.27011905 -16.62719727 27.83081055 C-16.68788229 24.32321604 -16.716219 20.8166176 -16.73828125 17.30859375 C-16.76408768 16.21883743 -16.7898941 15.12908112 -16.81648254 14.00630188 C-16.81817683 9.42720006 -16.72741332 6.49649019 -14.42260742 2.4777832 C-9.67186213 -0.23812959 -5.38709363 -0.05181881 0 0 Z M-11.25 7.6640625 C-12.5658809 11.6117052 -12.37300273 15.37495606 -12.34765625 19.48828125 C-12.3462413 20.34968216 -12.34482635 21.21108307 -12.34336853 22.09858704 C-12.3377714 24.84961419 -12.32521946 27.60055994 -12.3125 30.3515625 C-12.30748463 32.2167957 -12.30292179 34.08203017 -12.29882812 35.94726562 C-12.28780292 40.51956261 -12.27054027 45.09179875 -12.25 49.6640625 C-11.63511719 49.25414062 -11.02023438 48.84421875 -10.38671875 48.421875 C0.18079672 41.37686469 0.18079672 41.37686469 7.3046875 41.35546875 C8.82161838 41.33030619 10.33854538 41.30490821 11.85546875 41.27929688 C14.24071218 41.2505797 16.625888 41.2265555 19.01123047 41.20776367 C21.31773951 41.18604918 23.62345486 41.14660499 25.9296875 41.10546875 C26.99242386 41.10529503 26.99242386 41.10529503 28.07662964 41.1051178 C32.44356538 41.01826173 35.31228258 40.41577438 38.75 37.6640625 C40.36456863 32.8203566 39.97615798 27.86145267 40 22.7890625 C40.020625 21.69980469 40.04125 20.61054688 40.0625 19.48828125 C40.06765625 18.43511719 40.0728125 17.38195312 40.078125 16.296875 C40.0874707 15.33668457 40.09681641 14.37649414 40.10644531 13.38720703 C39.6806057 10.13390903 38.71785873 8.27346392 36.75 5.6640625 C32.79924961 4.3471457 29.00300638 4.48168968 24.8828125 4.4609375 C23.57520462 4.45238739 23.57520462 4.45238739 22.24118042 4.44366455 C20.39696464 4.43422067 18.55273203 4.427683 16.70849609 4.42382812 C13.89260314 4.41412317 11.07744041 4.38309464 8.26171875 4.3515625 C6.46875433 4.34503207 4.67578469 4.33978175 2.8828125 4.3359375 C2.04307892 4.3235907 1.20334534 4.3112439 0.33816528 4.29852295 C-4.31451526 4.31618063 -7.52536721 4.54665717 -11.25 7.6640625 Z " fill="#00BEFF" transform="translate(26.25,9.3359375)"/>
<path d="M0 0 C3.41343078 -0.48763297 4.75451685 -0.16627603 7.64526367 1.79174805 C11.16250003 6.58386862 10.6254988 10.850095 10.48828125 16.64453125 C10.48120651 17.7694548 10.47413177 18.89437836 10.46684265 20.0533905 C10.43889144 23.64044149 10.37614717 27.22592212 10.3125 30.8125 C10.28741827 33.24672222 10.26460489 35.68096895 10.24414062 38.11523438 C10.18906226 44.0773572 10.10542705 50.0385664 10 56 C5.40031923 55.6749117 3.13228687 54.54598202 -0.20788574 51.39628601 C-7.93909394 44.19141774 -14.85649426 43.73689537 -25.08691406 44.09301758 C-25.88323242 44.12419678 -26.67955078 44.15537598 -27.5 44.1875 C-29.92943811 44.25439407 -32.35697234 44.30624518 -34.78723145 44.329422 C-36.28478147 44.34633334 -37.78234546 44.38919146 -39.27819824 44.46244812 C-43.18338378 44.53517324 -44.83762201 44.12467548 -47.97460938 41.71606445 C-50.53673292 38.28023701 -50.4106092 36.18821388 -50 32 C-48.68 31.34 -47.36 30.68 -46 30 C-45.81824219 30.56589844 -45.63648438 31.13179687 -45.44921875 31.71484375 C-45.19785156 32.44832031 -44.94648437 33.18179688 -44.6875 33.9375 C-44.44386719 34.66839844 -44.20023438 35.39929688 -43.94921875 36.15234375 C-43.08759559 38.35932024 -43.08759559 38.35932024 -40 39 C-37.54387022 39.05855746 -35.11123077 39.06482601 -32.65625 39.03515625 C-31.16665978 39.03887381 -29.67707377 39.04480749 -28.1875 39.05273438 C-25.85436791 39.06321981 -23.52427496 39.06290304 -21.19140625 39.02416992 C-10.17455377 38.86056495 -3.34448202 40.00017148 5 48 C5.0494731 42.66147206 5.08575425 37.32307786 5.10986328 31.984375 C5.11991491 30.16859614 5.13355828 28.35283344 5.15087891 26.53710938 C5.17516406 23.92574065 5.18649148 21.31458613 5.1953125 18.703125 C5.20563507 17.89256653 5.21595764 17.08200806 5.22659302 16.24688721 C5.31940772 10.77182445 5.31940772 10.77182445 3 6 C2.01 5.67 1.02 5.34 0 5 C0 3.35 0 1.7 0 0 Z " fill="#00BEFF" transform="translate(76,30)"/>
</svg>
