<?xml version="1.0" encoding="UTF-8"?>
<svg version="1.1" xmlns="http://www.w3.org/2000/svg" width="96" height="96">
<path d="M0 0 C3.96 0 7.92 0 12 0 C12 23.76 12 47.52 12 72 C8.04 72 4.08 72 0 72 C0 48.24 0 24.48 0 0 Z " fill="#00BFFF" transform="translate(72,12)"/>
<path d="M0 0 C6.6 0 13.2 0 20 0 C20 6.6 20 13.2 20 20 C18.02 18.35 16.04 16.7 14 15 C10.42174213 16.50596838 8.24907311 18.58156281 5.59375 21.38671875 C4.76746094 22.24201172 3.94117187 23.09730469 3.08984375 23.97851562 C1.35741876 25.79063739 -0.36912197 27.60840224 -2.08984375 29.43164062 C-2.91613281 30.28306641 -3.74242187 31.13449219 -4.59375 32.01171875 C-5.34333984 32.80022217 -6.09292969 33.58872559 -6.86523438 34.40112305 C-9 36 -9 36 -11.16210938 35.83129883 C-13.37233862 34.83158701 -14.59768079 33.99276941 -16 32 C-15.6717581 27.94273281 -13.33535974 25.98940956 -10.52734375 23.234375 C-9.17866211 21.90019531 -9.17866211 21.90019531 -7.80273438 20.5390625 C-6.85720703 19.61867188 -5.91167969 18.69828125 -4.9375 17.75 C-3.97783027 16.80538327 -3.01883771 15.86007805 -2.06054688 14.9140625 C0.28638828 12.60250828 2.64003391 10.2982366 5 8 C3.57568513 4.93224489 2.09219926 2.78959901 0 0 Z " fill="#00BEFF" transform="translate(28,12)"/>
<path d="M0 0 C3.96 0 7.92 0 12 0 C12 13.2 12 26.4 12 40 C8.04 40 4.08 40 0 40 C0 26.8 0 13.6 0 0 Z " fill="#00BFFF" transform="translate(52,44)"/>
<path d="M0 0 C3.96 0 7.92 0 12 0 C12 7.92 12 15.84 12 24 C8.04 24 4.08 24 0 24 C0 16.08 0 8.16 0 0 Z " fill="#00BFFF" transform="translate(32,60)"/>
<path d="M0 0 C3.96 0 7.92 0 12 0 C12 5.28 12 10.56 12 16 C8.04 16 4.08 16 0 16 C0 10.72 0 5.44 0 0 Z " fill="#00BFFF" transform="translate(12,68)"/>
</svg>
