<?xml version="1.0" encoding="UTF-8"?>
<svg version="1.1" xmlns="http://www.w3.org/2000/svg" width="96" height="96">
<path d="M0 0 C8.80288754 6.34043826 15.4186507 14.72648904 17.58203125 25.4921875 C18.94204265 38.11321229 17.85012226 49.1232905 10.01953125 59.4921875 C8.90044669 60.84804942 7.75659295 62.18409094 6.58203125 63.4921875 C6.15516525 64.01588928 5.72829926 64.53959106 5.28849792 65.0791626 C2.9992813 66.97472853 1.5463677 66.90788426 -1.4050293 66.97558594 C-2.92757576 67.01881989 -2.92757576 67.01881989 -4.48088074 67.06292725 C-5.57773697 67.07567688 -6.6745932 67.08842651 -7.8046875 67.1015625 C-9.50115166 67.12721283 -9.50115166 67.12721283 -11.23188782 67.15338135 C-13.62838314 67.18173967 -16.0249956 67.20133671 -18.42163086 67.21289062 C-22.07550663 67.24194922 -25.72427149 67.33494723 -29.37695312 67.4296875 C-31.70700122 67.44928516 -34.03708551 67.46503363 -36.3671875 67.4765625 C-37.45392258 67.51360291 -38.54065765 67.55064331 -39.6603241 67.58880615 C-44.23823054 67.54882112 -47.22569502 67.44525397 -50.8790741 64.52485657 C-54.27862125 60.75951922 -57.22791265 56.80579702 -59.35546875 52.1796875 C-59.92587891 50.97892578 -59.92587891 50.97892578 -60.5078125 49.75390625 C-64.06634206 40.91103665 -63.84922398 28.43654085 -60.85546875 19.4296875 C-56.23568113 8.88171087 -48.02844538 0.67447512 -37.48046875 -3.9453125 C-25.20446722 -7.93371806 -10.94613541 -6.8258615 0 0 Z M-39.41796875 5.4921875 C-40.11277344 5.91628906 -40.80757812 6.34039063 -41.5234375 6.77734375 C-48.64685639 11.57529381 -53.17329831 18.2212847 -55.41796875 26.4921875 C-56.68997645 37.96471847 -55.35321633 46.62299072 -48.25502014 56.03407288 C-45.42767906 59.30081026 -43.35751908 60.87287291 -38.99243164 61.28442383 C-37.29240058 61.33044813 -35.5911869 61.34191305 -33.890625 61.32421875 C-32.98348251 61.33233078 -32.07634003 61.34044281 -31.14170837 61.34880066 C-29.22965239 61.35723794 -27.31747568 61.35045184 -25.40551758 61.3293457 C-22.49128256 61.30477866 -19.58370134 61.34945301 -16.66992188 61.40039062 C-14.80598405 61.40002008 -12.94204172 61.39559686 -11.078125 61.38671875 C-10.21437759 61.40402542 -9.35063019 61.42133209 -8.46070862 61.43916321 C-3.54532342 61.32637896 -0.98258877 60.59324258 2.57470703 57.09423828 C9.62508614 49.12798729 11.54163808 40.68311148 11 30.234375 C10.44616393 25.27573059 9.26845783 21.66828365 6.58203125 17.4921875 C5.94587891 16.44998047 5.94587891 16.44998047 5.296875 15.38671875 C0.50866799 8.27776517 -6.1503815 3.70761892 -14.41796875 1.4921875 C-23.27131577 0.70318455 -31.71221379 0.5351788 -39.41796875 5.4921875 Z " fill="#00BEFF" transform="translate(70.41796875,17.5078125)"/>
<path d="M0 0 C1.21042969 0.00644531 2.42085937 0.01289063 3.66796875 0.01953125 C6.8125 0.1875 6.8125 0.1875 9.8125 1.1875 C10.6875 3.0625 10.6875 3.0625 10.8125 5.1875 C9.73828125 6.828125 9.73828125 6.828125 7.8125 8.1875 C4.73828125 8.3046875 4.73828125 8.3046875 1.125 8.0625 C-4.47578427 7.9526807 -8.15251199 8.19507364 -12.6328125 11.65625 C-17.28834183 16.24159548 -18.43172713 19.78518541 -18.6875 26.1875 C-18.52805956 31.74018652 -17.10301364 34.57910748 -14.1875 39.1875 C-14.4375 42.125 -14.4375 42.125 -15.1875 44.1875 C-16.6725 44.6825 -16.6725 44.6825 -18.1875 45.1875 C-22.91183344 40.84622062 -25.8285268 37.12719948 -26.62109375 30.63671875 C-26.63047519 21.6023958 -26.38493593 14.77520985 -20.12890625 7.9375 C-13.80229817 1.96296286 -8.78836634 -0.10361418 0 0 Z " fill="#00BFFF" transform="translate(48.1875,25.8125)"/>
<path d="M0 0 C2.22265625 0.3984375 2.22265625 0.3984375 3.22265625 1.3984375 C3.65234375 3.58984375 3.65234375 3.58984375 3.22265625 6.3984375 C1.31442415 8.56635256 -0.51475419 10.42580312 -2.65234375 12.3359375 C-6.86034667 16.11923478 -9.34014416 18.72397706 -10.77734375 24.3984375 C-12.67223327 26.29332702 -15.34873521 25.57862862 -17.8671875 25.62890625 C-19.77734375 25.3984375 -19.77734375 25.3984375 -21.77734375 23.3984375 C-22.04296875 21.5234375 -22.04296875 21.5234375 -22.02734375 19.3984375 C-22.0325 18.6971875 -22.03765625 17.9959375 -22.04296875 17.2734375 C-21.77734375 15.3984375 -21.77734375 15.3984375 -19.77734375 13.3984375 C-18.86082031 13.14320312 -17.94429687 12.88796875 -17 12.625 C-12.47952926 10.90448144 -9.95152173 7.7385611 -6.83398438 4.2109375 C-4.58460401 1.79197369 -3.33204038 0.47801423 0 0 Z " fill="#00BEFF" transform="translate(63.77734375,32.6015625)"/>
<path d="M0 0 C0.61875 0.28875 1.2375 0.5775 1.875 0.875 C3.97655516 7.17966547 3.97497496 14.71406112 1.79296875 20.984375 C-1.19692029 26.94692029 -1.19692029 26.94692029 -3.125 28.875 C-4.79117115 28.91563832 -6.45888095 28.917721 -8.125 28.875 C-8.875 26.8125 -8.875 26.8125 -9.125 23.875 C-8.485625 22.905625 -7.84625 21.93625 -7.1875 20.9375 C-4.15244935 16.28169101 -4.96154072 11.3358009 -5.27734375 5.984375 C-5.125 2.875 -5.125 2.875 -3.76171875 0.9453125 C-2.125 -0.125 -2.125 -0.125 0 0 Z " fill="#00BEFF" transform="translate(71.125,41.125)"/>
</svg>
