<?xml version="1.0" encoding="UTF-8"?>
<svg version="1.1" xmlns="http://www.w3.org/2000/svg" width="96" height="96">
<path d="M0 0 C0.690867 0.32810669 1.38173401 0.65621338 2.09353638 0.9942627 C2.81751617 1.32720337 3.54149597 1.66014404 4.28741455 2.00317383 C6.58462809 3.06255261 8.8741664 4.13746828 11.16384888 5.2130127 C12.72586739 5.93670908 14.28836296 6.65937676 15.85134888 7.38098145 C19.66947467 9.1464632 23.48079824 10.92590955 27.28884888 12.7130127 C27.36369082 17.51441135 27.41777342 22.31546131 27.4536438 27.11730957 C27.46861654 28.74660161 27.48900209 30.37585415 27.51516724 32.00500488 C27.78800071 49.44494818 27.78800071 49.44494818 24.28884888 57.7130127 C23.66816528 59.21348145 23.66816528 59.21348145 23.03494263 60.7442627 C16.5393378 72.99865748 6.55412806 82.19005266 -6.85958862 86.3848877 C-14.65321749 87.23988496 -22.6639928 81.04873883 -28.48849487 76.58410645 C-36.21155539 69.5512424 -42.58488917 59.06560602 -44.71115112 48.7130127 C-44.79463887 45.94876037 -44.82740798 43.21087557 -44.80880737 40.4473877 C-44.80739243 39.65398987 -44.80597748 38.86059204 -44.80451965 38.04315186 C-44.79893528 35.51639998 -44.78638566 32.98973766 -44.77365112 30.4630127 C-44.7686341 28.74686814 -44.76407155 27.0307222 -44.75997925 25.3145752 C-44.74897096 21.11402001 -44.73171709 16.91353152 -44.71115112 12.7130127 C-40.12798281 10.56214988 -35.53815627 8.42646592 -30.94161987 6.30432129 C-29.38014582 5.58087715 -27.82054292 4.85337959 -26.26290894 4.1217041 C-24.01873193 3.06840263 -21.76814567 2.03004384 -19.51583862 0.9942627 C-18.82497162 0.66615601 -18.13410461 0.33804932 -17.42230225 0 C-10.73977516 -3.03959727 -6.68252708 -3.03959727 0 0 Z M-16.53536987 10.08410645 C-17.64589722 10.57588379 -18.75642456 11.06766113 -19.90060425 11.57434082 C-21.05495972 12.09447754 -22.20931519 12.61461426 -23.39865112 13.1505127 C-25.14758667 13.92491699 -25.14758667 13.92491699 -26.93185425 14.71496582 C-32.16098545 16.67731206 -32.16098545 16.67731206 -36.71115112 19.7130127 C-37.51579734 36.85384836 -37.00439524 52.45879802 -25.39865112 66.0255127 C-20.83618705 70.85367767 -16.30351115 74.18625969 -10.21115112 76.7755127 C-1.9167764 76.56815333 4.90348309 69.3212212 10.28884888 63.7130127 C20.50898674 50.96217403 19.43857007 35.13429576 19.28884888 19.7130127 C1.99530894 9.32883331 1.99530894 9.32883331 -16.53536987 10.08410645 Z " fill="#00BEFF" transform="translate(56.711151123046875,6.2869873046875)"/>
</svg>
