<?xml version="1.0" encoding="UTF-8"?>
<svg version="1.1" xmlns="http://www.w3.org/2000/svg" width="100" height="100">
<path d="M0 0 C1.32 0.33 2.64 0.66 4 1 C3.36445943 8.22044702 1.49897433 14.9227439 -0.5 21.875 C-0.82097656 23.01453125 -1.14195313 24.1540625 -1.47265625 25.328125 C-3.84767771 33.69535543 -3.84767771 33.69535543 -5 36 C2.26 36 9.52 36 17 36 C15.87558077 41.62209613 15.87558077 41.62209613 13.2265625 44.71484375 C12.65478271 45.39361572 12.08300293 46.0723877 11.49389648 46.77172852 C10.56879272 47.8437854 10.56879272 47.8437854 9.625 48.9375 C8.3359222 50.46503508 7.04817708 51.99369571 5.76171875 53.5234375 C5.12153809 54.28108398 4.48135742 55.03873047 3.82177734 55.81933594 C1.29153978 58.84802555 -1.14344778 61.94478164 -3.5625 65.0625 C-9.59096211 72.80365783 -15.79306814 80.40168914 -22 88 C-23.32 87.67 -24.64 87.34 -26 87 C-25.41570428 82.30745612 -24.51654414 77.93583691 -23.15234375 73.41015625 C-22.79462891 72.21455078 -22.43691406 71.01894531 -22.06835938 69.78710938 C-21.69517578 68.55798828 -21.32199219 67.32886719 -20.9375 66.0625 C-20.56044922 64.80630859 -20.18339844 63.55011719 -19.79492188 62.25585938 C-18.86775785 59.1692247 -17.9344814 56.08442722 -17 53 C-24.26 52.67 -31.52 52.34 -39 52 C-37.87558077 46.37790387 -37.87558077 46.37790387 -35.2265625 43.28515625 C-34.65478271 42.60638428 -34.08300293 41.9276123 -33.49389648 41.22827148 C-32.87716064 40.51356689 -32.2604248 39.7988623 -31.625 39.0625 C-30.3359222 37.53496492 -29.04817708 36.00630429 -27.76171875 34.4765625 C-27.12153809 33.71891602 -26.48135742 32.96126953 -25.82177734 32.18066406 C-23.29153978 29.15197445 -20.85655222 26.05521836 -18.4375 22.9375 C-12.40903789 15.19634217 -6.20693186 7.59831086 0 0 Z M-6 16 C-11.78695869 22.7383929 -17.49632816 29.5272503 -23 36.5 C-23.45608643 37.07443848 -23.91217285 37.64887695 -24.38208008 38.24072266 C-26.86800385 41.41240247 -28.91202423 44.52004038 -31 48 C-24.4 48.33 -17.8 48.66 -11 49 C-12.30318068 54.86431306 -13.6280149 60.21160847 -15.51171875 65.8359375 C-16.23292557 68.16335179 -16.23292557 68.16335179 -15 71 C-0.41200005 56.46772602 -0.41200005 56.46772602 9 40 C2.4 40 -4.2 40 -11 40 C-10.55527344 38.43507813 -10.11054687 36.87015625 -9.65234375 35.2578125 C-9.08035249 33.21364703 -8.50875839 31.1693704 -7.9375 29.125 C-7.64294922 28.09246094 -7.34839844 27.05992188 -7.04492188 25.99609375 C-6.77099609 25.00996094 -6.49707031 24.02382813 -6.21484375 23.0078125 C-5.82993774 21.64100342 -5.82993774 21.64100342 -5.43725586 20.24658203 C-4.75820862 17.97537135 -4.75820862 17.97537135 -6 16 Z " fill="#00BEFF" transform="translate(61,6)"/>
</svg>
