<?xml version="1.0" encoding="UTF-8"?>
<svg version="1.1" xmlns="http://www.w3.org/2000/svg" width="64" height="64">
<path d="M0 0 C6.65740455 3.87981192 10.77932471 8.92642041 13.76953125 16.03125 C15.61327363 23.73295867 15.05614052 30.82049521 11.76953125 38.03125 C6.94329085 45.13192553 1.39472755 49.38485108 -6.79296875 51.78125 C-16.38072663 52.76460978 -23.88898132 50.81917208 -31.4375 44.77734375 C-37.34169885 39.02750304 -39.35247278 32.98265972 -39.60546875 24.90625 C-39.51899964 17.19320497 -37.54928482 11.7041657 -32.36328125 5.96484375 C-23.51990571 -2.27635641 -11.3723929 -5.17144604 0 0 Z M-31.78515625 11.93359375 C-35.71047242 17.63060667 -36.08695781 23.30555693 -35.23046875 30.03125 C-32.95242503 37.42694542 -28.98405801 42.30378823 -22.23046875 46.03125 C-16.51579991 48.46527562 -11.20546457 48.47349037 -5.23046875 47.03125 C1.60606074 44.05366747 6.58134232 39.10817779 9.64453125 32.28125 C11.72600544 26.04872157 10.7564797 19.74513834 8.20703125 13.78125 C4.90497534 7.82790832 -0.88264654 4.14719074 -7.23046875 2.03125 C-18.18556021 0.62297217 -24.75407239 3.70886076 -31.78515625 11.93359375 Z " fill="#00BEFF" transform="translate(44.23046875,6.96875)"/>
<path d="M0 0 C4.48607792 3.86011356 8.31747091 7.55761461 8.92578125 13.73046875 C9.09672358 20.10931672 8.70635487 25.16042152 4.6875 30.3125 C-0.94736718 35.44791305 -5.98129174 36.67939429 -13.5234375 36.58984375 C-18.9537481 36.04985488 -22.49030488 33.44093231 -26.125 29.4375 C-29.79064175 24.20086893 -30.96057235 19.68521141 -30.3125 13.3125 C-28.39968976 6.99805257 -25.86092245 2.9026557 -20.3125 -0.6875 C-13.50276323 -3.56854248 -6.56280451 -3.34331551 0 0 Z M-23.75 8.0625 C-26.32324289 13.41484521 -26.90447662 17.2579929 -25.25 23 C-22.72228339 27.32158001 -19.85224732 30.04262634 -15.3125 32.3125 C-9.93243202 32.98089948 -5.39787315 32.6774226 -0.8203125 29.6328125 C2.55996399 26.67288127 4.31789511 23.49964648 5.06640625 19.0703125 C5.34801542 13.67431752 4.29073132 10.5000391 0.6875 6.3125 C-2.83534635 2.58834814 -5.97468347 1.49360496 -10.96875 1.15234375 C-16.47708698 1.52874678 -20.16052433 4.01283514 -23.75 8.0625 Z " fill="#00BEFF" transform="translate(42.3125,14.6875)"/>
<path d="M0 0 C3.51578585 1.37574229 4.71719707 2.59464913 6.875 5.6875 C8.2838594 9.83580822 8.26606476 12.82284756 7 17 C5.18681438 19.97880495 3.71176259 21.56503397 0.75 23.375 C-3.04727922 24.238018 -6.27449099 24.18915237 -10 23 C-13.13921957 20.39511567 -15.69148327 18.20369092 -16.2734375 14.046875 C-16.46329043 9.75327801 -16.4342668 6.90417036 -13.625 3.5 C-9.29569386 -0.62314871 -5.77711431 -0.54066581 0 0 Z M-12 9 C-12.75015195 12.04308291 -12.75015195 12.04308291 -12 15 C-10.06359458 17.65359262 -8.62141377 18.7609947 -5.5625 19.9375 C-2.1528946 20.02066111 -0.66217729 19.08657139 2 17 C3.74693992 14.61780919 4.02276273 13.45525467 3.875 10.5 C2.77558862 7.35882463 1.69140735 5.96399996 -1 4 C-6.43266828 2.95970182 -8.78566896 4.65119918 -12 9 Z " fill="#00BCFF" transform="translate(36,20)"/>
<path d="M0 0 C1.67542976 0.28604898 3.34385343 0.61781233 5 1 C4.67 2.32 4.34 3.64 4 5 C2.68 5.33 1.36 5.66 0 6 C-0.38218767 4.34385343 -0.71395102 2.67542976 -1 1 C-0.67 0.67 -0.34 0.34 0 0 Z " fill="#00BFFF" transform="translate(30,29)"/>
</svg>
