<?xml version="1.0" encoding="UTF-8"?>
<svg version="1.1" xmlns="http://www.w3.org/2000/svg" width="100" height="100">
<path d="M0 0 C31.68 0 63.36 0 96 0 C96 23.76 96 47.52 96 72 C64.32 72 32.64 72 0 72 C0 48.24 0 24.48 0 0 Z M4 4 C4 25.12 4 46.24 4 68 C33.04 68 62.08 68 92 68 C92 46.88 92 25.76 92 4 C62.96 4 33.92 4 4 4 Z " fill="#00BEFF" transform="translate(2,14)"/>
<path d="M0 0 C6.233681 -0.50887192 11.00774622 -0.13349453 16 4 C23.86249211 11.81531715 23.86249211 11.81531715 24.09765625 17.26171875 C24.08605469 18.06222656 24.07445312 18.86273438 24.0625 19.6875 C24.05347656 20.49574219 24.04445312 21.30398437 24.03515625 22.13671875 C24.02355469 22.75160156 24.01195312 23.36648437 24 24 C22.68 24 21.36 24 20 24 C19.9071875 25.546875 19.9071875 25.546875 19.8125 27.125 C18.63898135 32.72178126 15.98839174 35.54507921 11.4375 38.875 C5.76677298 40.7308743 -0.45334432 41.17589654 -6.19140625 39.2734375 C-11.04644436 36.69387082 -14.27168139 33.18495583 -16 28 C-16.71318783 21.12283167 -16.7555479 15.34279259 -12.5625 9.625 C-9.94022482 6.89783381 -7.48030334 5.51867782 -4 4 C-2.68 4 -1.36 4 0 4 C0 2.68 0 1.36 0 0 Z M4 5 C4 9.95 4 14.9 4 20 C8.95 20 13.9 20 19 20 C17.94751723 14.73758614 16.72724342 11.01902987 12.28515625 7.73046875 C9.38773353 5.99691562 7.41202281 5 4 5 Z M-6.625 11.875 C-7.23601563 12.40867187 -7.84703125 12.94234375 -8.4765625 13.4921875 C-11.05803215 16.04718054 -11.25912721 18.15788092 -11.4375 21.6875 C-11.41544127 26.76100805 -9.98873334 29.14924717 -6.5078125 32.72265625 C-3.15240358 35.56519179 0.13307042 35.45101678 4.3828125 35.4140625 C8.06326765 34.83178154 10.01784359 33.26375184 12.72265625 30.80078125 C14.41951459 28.66766021 14.41951459 28.66766021 15 24 C10.05 24 5.1 24 0 24 C0 19.05 0 14.1 0 9 C-3.54540188 9 -4.06007364 9.59385272 -6.625 11.875 Z " fill="#00BEFF" transform="translate(30,22)"/>
<path d="M0 0 C1.32 0 2.64 0 4 0 C4 3.3 4 6.6 4 10 C2.68 10 1.36 10 0 10 C0 9.01 0 8.02 0 7 C-9.9 7 -19.8 7 -30 7 C-30 5.68 -30 4.36 -30 3 C-20.1 3 -10.2 3 0 3 C0 2.01 0 1.02 0 0 Z " fill="#00BEFF" transform="translate(46,67)"/>
<path d="M0 0 C9.9 0 19.8 0 30 0 C30 1.32 30 2.64 30 4 C20.1 4 10.2 4 0 4 C0 2.68 0 1.36 0 0 Z " fill="#00BEFF" transform="translate(54,70)"/>
<path d="M0 0 C6.6 0 13.2 0 20 0 C20 1.32 20 2.64 20 4 C13.4 4 6.8 4 0 4 C0 2.68 0 1.36 0 0 Z " fill="#00BEFF" transform="translate(64,54)"/>
<path d="M0 0 C6.6 0 13.2 0 20 0 C20 1.32 20 2.64 20 4 C13.4 4 6.8 4 0 4 C0 2.68 0 1.36 0 0 Z " fill="#00BEFF" transform="translate(64,42)"/>
<path d="M0 0 C6.6 0 13.2 0 20 0 C20 1.32 20 2.64 20 4 C13.4 4 6.8 4 0 4 C0 2.68 0 1.36 0 0 Z " fill="#00BEFF" transform="translate(64,30)"/>
</svg>
