<?xml version="1.0" encoding="UTF-8"?>
<svg version="1.1" xmlns="http://www.w3.org/2000/svg" width="96" height="96">
<path d="M0 0 C1.09570312 0.00902344 2.19140625 0.01804688 3.3203125 0.02734375 C4.16335937 0.03894531 5.00640625 0.05054688 5.875 0.0625 C7 3.8125 7 3.8125 5.875 6.0625 C3.58984375 6.6953125 3.58984375 6.6953125 0.8125 7.1875 C-0.10660156 7.35507812 -1.02570312 7.52265625 -1.97265625 7.6953125 C-3.03806641 7.87707031 -3.03806641 7.87707031 -4.125 8.0625 C-5.23165421 11.38246264 -5.25434856 13.87938599 -5.2578125 17.375 C-5.25910156 18.61507812 -5.26039062 19.85515625 -5.26171875 21.1328125 C-5.25785156 22.42960937 -5.25398438 23.72640625 -5.25 25.0625 C-5.25386719 26.35929687 -5.25773437 27.65609375 -5.26171875 28.9921875 C-5.25978516 30.85230469 -5.25978516 30.85230469 -5.2578125 32.75 C-5.25668457 33.88824219 -5.25555664 35.02648437 -5.25439453 36.19921875 C-5.25226873 39.13582236 -5.25226873 39.13582236 -4.125 42.0625 C-1.19020555 43.04076482 0.70117152 43.18910743 3.7578125 43.19189453 C4.74894043 43.19504669 5.74006836 43.19819885 6.76123047 43.20144653 C8.36442139 43.19841019 8.36442139 43.19841019 10 43.1953125 C11.64766357 43.19674759 11.64766357 43.19674759 13.32861328 43.19821167 C15.65201881 43.19889245 17.97542624 43.19704525 20.29882812 43.19287109 C23.86072043 43.18752145 27.42248663 43.19281956 30.984375 43.19921875 C33.23958361 43.19855795 35.49479215 43.19727675 37.75 43.1953125 C38.81879395 43.19733673 39.88758789 43.19936096 40.98876953 43.20144653 C41.97989746 43.19829437 42.97102539 43.19514221 43.9921875 43.19189453 C44.86472168 43.19109894 45.73725586 43.19030334 46.63623047 43.18948364 C49.04665101 43.15083692 49.04665101 43.15083692 51.875 42.0625 C52.98165421 38.74253736 53.00434856 36.24561401 53.0078125 32.75 C53.00910156 31.50992188 53.01039062 30.26984375 53.01171875 28.9921875 C53.00785156 27.69539063 53.00398438 26.39859375 53 25.0625 C53.00386719 23.76570313 53.00773437 22.46890625 53.01171875 21.1328125 C53.01042969 19.89273438 53.00914063 18.65265625 53.0078125 17.375 C53.00612061 15.66763672 53.00612061 15.66763672 53.00439453 13.92578125 C53.00226873 10.98917764 53.00226873 10.98917764 51.875 8.0625 C46.925 7.0725 46.925 7.0725 41.875 6.0625 C40.875 2.0625 40.875 2.0625 41.875 0.0625 C52.80786835 -0.5652245 52.80786835 -0.5652245 57.0625 1.9375 C60.42174635 5.87592675 60.06768161 9.42404579 60.11328125 14.39453125 C60.121353 15.22329269 60.12942474 16.05205414 60.13774109 16.90592957 C60.15158221 18.66195585 60.16230424 20.41800904 60.17016602 22.17407227 C60.18736651 24.85420009 60.23124926 27.53309028 60.27539062 30.21289062 C60.28551879 31.91926176 60.29403451 33.62564339 60.30078125 35.33203125 C60.31828934 36.13115433 60.33579742 36.9302774 60.35383606 37.75361633 C60.33843681 41.72219676 60.16215601 43.61202378 57.97338867 47.0456543 C54.6665801 50.22396094 52.71326698 50.19722466 48.21948242 50.23950195 C47.03452682 50.25233719 45.84957123 50.26517242 44.62870789 50.27839661 C43.34228897 50.28578354 42.05587006 50.29317047 40.73046875 50.30078125 C39.41339432 50.308853 38.09631989 50.31692474 36.73933411 50.32524109 C33.94756193 50.34026861 31.15581521 50.35010613 28.36401367 50.35766602 C24.79276696 50.36872376 21.2221445 50.40311556 17.65111828 50.44283772 C14.24009345 50.47531378 10.82913625 50.47978368 7.41796875 50.48828125 C5.49744942 50.51454338 5.49744942 50.51454338 3.53813171 50.54133606 C2.34371964 50.53841049 1.14930756 50.53548492 -0.08129883 50.5324707 C-1.13005692 50.53833694 -2.178815 50.54420319 -3.25935364 50.55024719 C-6.85370981 49.93846998 -8.5203847 48.56084308 -11.125 46.0625 C-12.74154921 42.82940158 -12.33067585 39.28454643 -12.36328125 35.73046875 C-12.371353 34.90170731 -12.37942474 34.07294586 -12.38774109 33.21907043 C-12.40158221 31.46304415 -12.41230424 29.70699096 -12.42016602 27.95092773 C-12.43736651 25.27079991 -12.48124926 22.59190972 -12.52539062 19.91210938 C-12.53551879 18.20573824 -12.54403451 16.49935661 -12.55078125 14.79296875 C-12.56828934 13.99384567 -12.58579742 13.1947226 -12.60383606 12.37138367 C-12.58843681 8.40280324 -12.41215601 6.51297622 -10.22338867 3.0793457 C-6.78630025 -0.22417814 -4.67382099 -0.0497215 0 0 Z " fill="#00BEFF" transform="translate(24.125,33.9375)"/>
<path d="M0 0 C4.32143614 0.97329643 6.38541604 3.26108244 9.34765625 6.43359375 C9.88455078 6.97242188 10.42144531 7.51125 10.97460938 8.06640625 C13.62912384 10.8113014 15.5304795 12.85447448 16.03515625 16.68359375 C14.59765625 18.43359375 14.59765625 18.43359375 13.03515625 19.68359375 C8.72643339 18.2473528 7.4891306 17.1375681 4.03515625 13.68359375 C3.70515625 27.87359375 3.37515625 42.06359375 3.03515625 56.68359375 C-0.96484375 57.68359375 -0.96484375 57.68359375 -2.96484375 56.68359375 C-3.29484375 42.49359375 -3.62484375 28.30359375 -3.96484375 13.68359375 C-5.61484375 15.33359375 -7.26484375 16.98359375 -8.96484375 18.68359375 C-11.08984375 19.68359375 -11.08984375 19.68359375 -12.96484375 19.68359375 C-14.71484375 18.24609375 -14.71484375 18.24609375 -15.96484375 16.68359375 C-14.53687877 12.14233303 -12.01272927 9.18224154 -8.71484375 5.87109375 C-8.24949219 5.36900391 -7.78414062 4.86691406 -7.3046875 4.34960938 C-4.96705715 1.98300013 -3.25776685 0.75113201 0 0 Z " fill="#00BEFF" transform="translate(47.96484375,11.31640625)"/>
</svg>
